<?xml version="1.0" standalone="no"?>
<!DOCTYPE svg PUBLIC "-//W3C//DTD SVG 20010904//EN"
 "http://www.w3.org/TR/2001/REC-SVG-20010904/DTD/svg10.dtd">
<svg version="1.0" xmlns="http://www.w3.org/2000/svg"
 width="3072.000000pt" height="1024.000000pt" viewBox="0 0 3072.000000 1024.000000"
 preserveAspectRatio="xMidYMid meet">
<metadata>
Created by potrace 1.16, written by Peter Selinger 2001-2019
</metadata>
<g transform="translate(0.000000,1024.000000) scale(0.100000,-0.100000)"
fill="#000000" stroke="none">
<path d="M13600 9258 c-25 -13 -55 -38 -68 -57 l-23 -35 3 -450 c3 -511 -1
-484 86 -527 85 -42 185 -8 223 75 17 37 19 71 19 359 l0 317 1520 0 1520 0 0
-322 c0 -300 1 -324 20 -363 53 -110 226 -110 287 0 22 40 23 43 23 465 0 393
-2 428 -19 466 -10 23 -34 52 -52 65 l-34 24 -1730 3 -1730 2 -45 -22z"/>
<path d="M14630 7565 l0 -925 175 0 175 0 0 385 0 385 115 0 115 0 0 100 0 99
-112 3 -113 3 -3 332 -2 333 242 2 243 3 3 103 3 102 -421 0 -420 0 0 -925z"/>
<path d="M15600 8378 l0 -113 48 -35 c63 -47 112 -141 112 -216 0 -104 -60
-237 -138 -305 -49 -43 -129 -79 -208 -92 l-64 -11 0 -97 0 -98 48 -6 c170
-23 282 -107 364 -273 35 -70 40 -86 30 -103 -7 -10 -12 -29 -12 -42 0 -42
-41 -171 -78 -246 -55 -113 -100 -164 -179 -203 l-68 -33 -412 -3 -413 -3 0
-90 0 -91 478 4 c465 4 479 5 547 27 186 62 302 162 385 335 32 67 75 214 85
287 4 34 11 48 24 52 17 4 18 10 10 58 -6 30 -28 92 -51 138 -49 101 -149 208
-246 262 l-62 36 54 37 c150 103 236 264 236 441 0 259 -172 450 -442 489
l-48 7 0 -113z"/>
<path d="M13582 6730 c-18 -11 -41 -34 -52 -52 -19 -32 -20 -52 -20 -493 0
-441 1 -461 20 -493 11 -18 34 -41 52 -52 33 -20 51 -20 1785 -18 l1752 3 32
30 c59 56 59 53 59 533 0 434 0 438 -22 482 -29 56 -74 80 -149 80 -67 0 -115
-27 -141 -80 -16 -31 -18 -71 -18 -377 l0 -343 -1520 0 -1520 0 0 338 c0 331
0 339 -22 382 -14 27 -36 50 -58 62 -48 25 -135 24 -178 -2z"/>
<path d="M16378 4240 c-262 -47 -466 -231 -534 -480 -24 -86 -24 -269 0 -360
55 -215 218 -385 426 -444 106 -30 221 -39 335 -26 107 11 244 45 323 80 l42
19 -2 258 -3 258 -110 0 -110 0 -3 -202 -2 -202 -77 -17 c-117 -26 -227 -15
-322 32 -161 80 -241 222 -241 434 0 210 78 359 228 432 60 30 77 33 172 36
123 5 196 -11 308 -65 41 -19 75 -33 77 -31 14 16 65 153 61 163 -8 21 -113
71 -198 95 -82 24 -290 35 -370 20z"/>
<path d="M17530 4233 c-120 -33 -217 -111 -262 -211 -31 -69 -31 -208 0 -276
52 -114 103 -153 336 -255 225 -99 263 -134 254 -232 -7 -64 -30 -96 -91 -125
-97 -45 -228 -29 -378 47 -65 32 -84 38 -91 27 -30 -44 -78 -152 -71 -158 23
-22 162 -83 231 -101 263 -68 524 17 611 201 23 48 26 68 26 155 0 115 -17
163 -81 235 -53 59 -119 99 -252 154 -148 61 -185 80 -232 122 -100 90 -40
231 105 249 73 10 162 -7 246 -46 38 -18 71 -30 73 -28 7 7 86 148 86 154 0 9
-95 53 -165 75 -98 31 -257 36 -345 13z"/>
<path d="M18848 4240 c-207 -37 -380 -164 -467 -340 -56 -115 -74 -205 -68
-350 3 -91 10 -132 31 -195 71 -208 237 -360 451 -411 103 -25 268 -23 378 4
77 19 215 78 241 102 9 9 -72 173 -83 167 -74 -41 -190 -88 -239 -98 -212 -41
-422 86 -488 295 -25 79 -30 269 -9 342 38 131 104 217 203 266 65 32 70 33
197 33 129 0 131 0 218 -39 48 -21 90 -37 91 -35 9 9 76 150 76 158 0 13 -101
58 -183 82 -81 23 -272 34 -349 19z"/>
<path d="M25330 3602 l0 -649 216 -7 c120 -4 304 -4 410 0 l194 7 0 89 0 88
-280 0 -280 0 0 200 0 200 230 0 230 0 0 90 0 90 -230 0 -230 0 0 180 0 180
270 0 270 0 0 90 0 90 -400 0 -400 0 0 -648z"/>
<path d="M26365 4239 c-3 -8 -4 -302 -3 -654 l3 -640 55 -3 c30 -2 88 -1 128
3 l72 7 0 274 0 274 43 0 42 0 182 -238 c101 -130 198 -254 215 -275 l33 -38
141 3 142 3 -223 285 -223 285 45 18 c165 65 258 233 223 403 -30 148 -123
240 -282 280 -89 22 -585 33 -593 13z m536 -201 c61 -36 84 -82 84 -168 -2
-151 -90 -220 -282 -220 l-83 0 0 211 0 211 118 -3 c106 -4 121 -7 163 -31z"/>
<path d="M3540 3595 l0 -645 263 0 c225 0 273 3 343 20 199 47 322 141 400
305 49 103 66 176 71 310 8 200 -40 344 -158 470 -44 47 -81 75 -133 100 -137
67 -252 85 -558 85 l-228 0 0 -645z m597 421 c75 -34 144 -104 179 -181 72
-156 47 -418 -53 -559 -73 -103 -178 -146 -359 -146 l-114 0 0 461 0 461 143
-4 c131 -3 147 -5 204 -32z"/>
<path d="M4870 3596 l0 -646 125 0 125 0 0 276 0 277 47 -6 c25 -3 50 -11 54
-18 10 -18 283 -371 356 -461 l55 -68 144 0 c79 0 144 3 144 8 0 4 -99 130
-220 281 -121 150 -220 277 -220 282 0 5 5 9 11 9 31 0 126 60 169 107 63 69
84 131 84 243 0 99 -20 153 -80 219 -48 54 -101 85 -194 112 -66 19 -106 22
-337 26 l-263 5 0 -646z m530 432 c79 -46 111 -143 78 -239 -33 -100 -89 -131
-245 -137 l-113 -5 0 208 0 207 118 -3 c105 -4 122 -7 162 -31z"/>
<path d="M7220 3595 l0 -645 125 0 125 0 0 280 0 280 224 0 223 0 5 64 c3 35
3 77 0 92 l-5 27 -172 -6 c-95 -4 -195 -4 -224 0 l-51 6 0 177 0 177 38 7 c20
3 144 6 275 6 l238 0 -3 88 -3 87 -397 3 -398 2 0 -645z"/>
<path d="M8200 3596 l0 -643 138 -6 c76 -3 261 -3 410 1 l272 5 0 88 0 89
-285 0 -285 0 0 195 0 195 169 0 c92 0 196 3 230 6 l61 7 0 83 0 84 -227 2
-228 3 0 175 c0 133 3 175 13 176 6 1 129 2 272 3 l260 1 0 90 0 90 -400 0
-400 0 0 -644z"/>
<path d="M9260 3596 l0 -645 268 -3 c147 -2 331 -2 410 0 l142 3 0 90 0 89
-285 0 -285 0 0 555 0 555 -125 0 -125 0 0 -644z"/>
<path d="M10330 3595 l0 -645 125 0 125 0 -2 643 -3 642 -122 3 -123 3 0 -646z"/>
<path d="M10830 4235 c0 -7 119 -193 267 -419 79 -120 145 -222 146 -225 2 -7
-69 -120 -283 -451 -59 -91 -110 -171 -114 -177 -6 -10 19 -13 111 -13 l118 0
51 83 c28 45 93 151 145 234 l93 153 64 -98 c35 -53 104 -159 153 -234 l90
-138 145 0 c79 0 144 2 144 4 0 5 -127 206 -232 366 -120 183 -198 310 -198
321 0 5 84 136 186 292 103 155 189 288 191 295 4 9 -22 12 -110 12 l-116 0
-29 -42 c-15 -24 -77 -125 -137 -226 l-109 -183 -23 38 c-12 21 -76 121 -141
223 l-119 185 -146 2 c-81 1 -147 0 -147 -2z"/>
<path d="M12570 3595 l0 -647 293 4 c274 4 295 5 348 26 119 47 193 120 221
216 19 64 16 192 -6 255 -22 65 -93 142 -149 162 -20 7 -37 15 -37 19 0 3 21
17 45 32 112 68 156 246 95 385 -38 87 -107 140 -220 169 -49 12 -129 18 -327
21 l-263 5 0 -647z m476 454 c106 -27 148 -169 81 -271 -38 -57 -95 -78 -214
-78 l-103 0 0 149 c0 82 3 163 6 180 l7 31 89 0 c49 0 109 -5 134 -11z m47
-544 c104 -49 137 -206 65 -308 -37 -52 -87 -67 -225 -67 l-123 0 0 193 c0
107 3 197 8 201 14 16 235 0 275 -19z"/>
<path d="M13660 3596 l0 -644 23 -3 c12 -2 194 -3 405 -1 l382 3 0 89 0 90
-280 0 -280 0 0 195 0 195 228 2 227 3 3 88 3 87 -231 0 -230 0 2 178 3 177
273 3 272 2 0 90 0 90 -400 0 -400 0 0 -644z"/>
<path d="M14680 3597 l0 -645 31 -7 c17 -4 71 -4 120 0 l89 7 0 269 0 269 44
0 44 0 93 -122 c51 -68 146 -192 212 -275 l120 -153 116 1 c199 2 205 -29 -54
294 -123 154 -221 283 -217 286 4 3 28 14 54 23 65 24 141 95 175 164 25 51
28 67 28 162 0 95 -3 111 -28 162 -31 63 -86 116 -153 148 -93 43 -157 52
-421 57 l-253 5 0 -645z m477 448 c140 -42 178 -223 69 -331 -51 -51 -93 -64
-213 -64 l-93 0 0 205 0 205 93 0 c54 0 115 -6 144 -15z"/>
<path d="M19667 4233 c-2 -5 -4 -295 -4 -645 l0 -638 129 0 128 0 -2 278 -3
277 293 3 292 2 0 -285 0 -285 43 0 c23 0 79 3 125 7 l82 6 0 643 0 644 -125
0 -125 0 0 -275 0 -275 -292 2 -293 3 -1 70 c0 39 -1 161 -2 273 l-2 202 -119
0 c-66 0 -122 -3 -124 -7z"/>
<path d="M21040 3595 l0 -645 110 0 110 0 2 452 3 451 125 -199 c68 -109 181
-287 250 -396 69 -108 142 -224 163 -257 l37 -61 59 0 c32 0 86 3 120 6 l61 7
0 644 0 644 -112 -3 -113 -3 -5 -448 -5 -447 -56 92 c-76 125 -208 336 -344
548 -62 96 -124 194 -139 218 l-26 42 -120 0 -120 0 0 -645z"/>
<path d="M22390 3595 l0 -645 405 0 405 0 0 90 0 90 -280 0 -280 0 2 195 3
195 105 4 c58 2 156 4 218 5 l112 1 0 85 0 85 -220 0 -220 0 0 180 0 180 270
0 270 0 0 90 0 90 -395 0 -395 0 0 -645z"/>
<path d="M23440 3595 l0 -645 125 0 125 0 0 645 0 645 -125 0 -125 0 0 -645z"/>
<path d="M23990 3595 l0 -645 260 0 c288 0 360 9 485 61 158 66 280 216 332
409 12 47 17 103 17 200 0 124 -3 142 -30 220 -36 103 -87 183 -159 248 -65
60 -142 97 -264 128 -87 22 -112 24 -367 24 l-274 0 0 -645z m540 449 c120
-28 197 -93 253 -213 28 -59 31 -78 35 -181 7 -199 -26 -310 -122 -406 -86
-86 -140 -105 -313 -112 l-133 -5 0 467 0 466 108 0 c60 0 135 -7 172 -16z"/>
<path d="M6295 3225 c-123 -43 -134 -215 -18 -267 63 -28 122 -18 167 27 108
108 -5 290 -149 240z"/>
<path d="M12920 2400 c-26 -26 -25 -60 0 -88 27 -28 61 -28 88 1 59 63 -27
148 -88 87z"/>
<path d="M13095 2400 c-37 -41 -9 -110 45 -110 35 0 60 28 60 67 0 56 -67 85
-105 43z"/>
<path d="M24777 2402 c-25 -27 -22 -78 5 -96 29 -21 51 -20 78 2 44 36 17 112
-40 112 -15 0 -34 -8 -43 -18z"/>
<path d="M24950 2400 c-11 -11 -20 -30 -20 -43 0 -30 35 -67 64 -67 28 0 66
39 66 68 0 29 -34 62 -65 62 -14 0 -34 -9 -45 -20z"/>
<path d="M5385 2243 c-71 -26 -112 -58 -151 -119 -62 -96 -69 -227 -18 -331
79 -164 313 -211 449 -91 72 64 73 70 12 110 l-52 35 -19 -24 c-90 -120 -260
-60 -282 100 -24 170 157 283 266 166 l35 -37 52 31 c29 18 53 35 53 38 1 19
-86 99 -122 114 -65 26 -163 29 -223 8z"/>
<path d="M10955 2255 c-5 -2 -22 -6 -38 -9 -15 -4 -45 -23 -67 -42 -46 -41
-65 -97 -56 -158 13 -77 59 -116 181 -151 101 -29 117 -40 113 -83 -3 -32 -8
-38 -40 -50 -49 -19 -115 -2 -160 40 l-31 29 -45 -45 c-38 -37 -43 -47 -33
-60 27 -33 109 -75 168 -86 172 -34 306 75 274 221 -14 66 -71 112 -176 144
-92 28 -115 44 -115 80 0 65 113 73 178 12 l22 -21 40 39 c22 22 40 45 40 52
0 22 -78 71 -131 82 -48 11 -103 13 -124 6z"/>
<path d="M19657 2250 c-66 -17 -116 -49 -157 -101 -53 -67 -74 -142 -67 -231
13 -151 97 -249 239 -278 108 -21 215 14 286 95 132 150 83 420 -88 494 -58
25 -157 35 -213 21z m163 -138 c51 -38 70 -79 70 -154 0 -79 -16 -120 -60
-163 -41 -39 -129 -46 -178 -16 -66 42 -94 130 -73 226 12 55 52 104 101 124
34 15 109 5 140 -17z"/>
<path d="M23080 2251 c-131 -40 -220 -161 -220 -300 0 -130 57 -229 164 -281
159 -79 349 -13 417 144 34 79 32 202 -5 278 -33 69 -90 121 -163 148 -55 20
-145 25 -193 11z m169 -139 c55 -41 66 -67 66 -162 0 -74 -3 -93 -21 -117 -96
-130 -266 -79 -289 88 -12 86 30 174 100 205 38 18 111 10 144 -14z"/>
<path d="M3617 2243 c-4 -3 -7 -138 -7 -300 l0 -293 65 0 65 0 2 53 c2 28 3
81 3 117 l0 65 128 3 127 3 0 54 0 55 -125 0 -125 0 0 65 0 65 135 0 135 0 0
60 0 60 -198 0 c-109 0 -202 -3 -205 -7z"/>
<path d="M4517 2243 c-5 -8 -158 -428 -198 -541 l-18 -53 71 3 71 3 16 47 c9
26 21 52 27 58 7 7 50 10 115 8 l104 -3 20 -57 20 -58 72 0 c40 0 73 1 73 3 0
1 -11 31 -24 67 -99 271 -130 356 -159 435 l-34 90 -76 3 c-41 2 -78 -1 -80
-5z m117 -258 c20 -55 36 -101 36 -102 0 -2 -34 -3 -75 -3 -41 0 -75 2 -75 4
0 4 48 150 62 185 5 13 10 22 13 20 2 -2 20 -49 39 -104z"/>
<path d="M6077 2244 c-4 -4 -7 -139 -7 -301 l0 -293 70 0 70 0 0 125 0 125
120 0 120 0 0 -125 0 -125 65 0 65 0 0 300 0 300 -65 0 -64 0 -3 -117 -3 -118
-117 -3 -117 -3 -3 118 -3 118 -60 3 c-34 2 -64 0 -68 -4z"/>
<path d="M6969 2248 c-5 -26 -6 -332 -2 -445 l6 -153 64 0 63 0 0 105 0 105
78 0 c102 0 149 14 193 59 76 76 77 196 0 272 -47 47 -102 59 -271 59 -72 0
-130 -1 -131 -2z m300 -144 c26 -33 27 -75 2 -105 -16 -20 -30 -24 -95 -27
l-76 -4 0 81 0 81 74 0 c69 0 76 -2 95 -26z"/>
<path d="M7770 1951 l0 -301 65 0 65 0 0 111 0 110 36 -3 c35 -3 39 -7 98
-110 l61 -107 78 -1 79 0 -27 48 c-15 26 -33 54 -40 62 -18 24 -77 122 -73
124 2 2 20 13 41 25 52 32 71 72 72 151 0 83 -26 129 -93 161 -41 21 -66 24
-204 27 l-158 4 0 -301z m300 159 c27 -27 26 -77 -2 -107 -19 -20 -31 -23 -95
-23 l-73 0 0 75 0 75 75 0 c62 0 79 -4 95 -20z"/>
<path d="M8759 2223 c-6 -15 -33 -89 -60 -163 -27 -74 -69 -187 -93 -250 -68
-178 -69 -160 13 -160 l70 0 22 60 22 61 111 -3 111 -3 20 -57 20 -58 72 0 73
0 -34 93 c-18 50 -61 169 -96 262 -34 94 -67 186 -74 205 l-12 35 -77 3 c-76
3 -77 3 -88 -25z m88 -341 c-38 -2 -71 -1 -73 1 -2 2 13 53 33 113 l36 109 37
-110 37 -110 -70 -3z"/>
<path d="M9446 2241 c-4 -5 32 -67 79 -138 47 -70 85 -134 85 -140 0 -7 -30
-59 -67 -115 -36 -57 -79 -125 -95 -151 l-28 -48 77 3 76 3 61 101 60 102 61
-102 61 -101 77 -3 c42 -2 77 0 77 3 0 3 -17 32 -37 63 -20 31 -63 99 -95 150
l-58 94 89 136 c49 75 87 140 84 145 -2 4 -35 7 -73 7 l-69 0 -53 -90 c-29
-49 -55 -90 -59 -90 -4 0 -31 41 -59 90 l-52 90 -68 0 c-38 0 -71 -4 -74 -9z"/>
<path d="M10300 1950 l0 -300 65 0 65 0 0 300 0 300 -65 0 -65 0 0 -300z"/>
<path d="M12040 1950 l0 -300 65 0 65 0 0 120 0 120 125 0 125 0 0 55 0 55
-125 0 -125 0 0 65 0 65 134 0 134 0 7 50 c4 27 4 54 0 60 -4 6 -78 10 -206
10 l-199 0 0 -300z"/>
<path d="M12802 2023 c3 -208 5 -231 24 -267 30 -58 79 -93 157 -112 62 -16
72 -16 134 0 78 19 127 54 157 112 19 35 21 59 24 267 l3 227 -65 0 -66 0 0
-195 c0 -210 -7 -248 -51 -279 -45 -31 -144 -13 -165 31 -5 10 -11 113 -14
228 l-5 210 -68 3 -68 3 3 -228z"/>
<path d="M13688 2244 c-5 -4 -8 -139 -8 -301 l0 -293 65 0 65 0 0 64 c0 35 3
84 6 110 6 42 9 46 35 46 25 0 35 -11 92 -107 l64 -108 76 -3 c43 -2 77 0 77
3 0 3 -31 55 -70 116 l-69 112 32 17 c123 66 110 270 -22 328 -39 17 -329 31
-343 16z m292 -134 c27 -27 26 -77 -2 -107 -19 -20 -31 -23 -95 -23 l-73 0 0
53 c0 94 2 97 81 97 56 0 73 -4 89 -20z"/>
<path d="M14967 2244 c-4 -4 -7 -139 -7 -301 l0 -293 70 0 70 0 0 91 c0 87 1
93 30 126 l30 34 23 -37 c12 -21 45 -76 73 -123 l50 -86 77 -3 c42 -2 77 0 77
3 0 3 -45 80 -100 171 -55 91 -100 169 -100 175 0 5 43 60 95 122 52 61 95
115 95 120 0 4 -35 7 -77 7 l-78 0 -95 -121 -95 -121 -5 119 -5 118 -60 3
c-34 2 -64 0 -68 -4z"/>
<path d="M15798 2148 c-2 -57 -2 -192 0 -300 l3 -198 65 0 64 0 -2 298 -3 297
-62 3 -62 3 -3 -103z"/>
<path d="M16317 2244 c-4 -4 -7 -139 -7 -301 l0 -293 210 0 211 0 -3 58 -3 57
-105 -3 c-58 -1 -120 0 -137 3 l-33 6 0 64 0 65 125 0 125 0 0 55 0 55 -125 0
-125 0 0 60 0 60 135 0 c133 0 135 0 141 24 3 13 4 38 2 57 l-3 34 -201 3
c-110 1 -203 -1 -207 -4z"/>
<path d="M17107 2244 c-4 -4 -7 -139 -7 -301 l0 -293 65 0 65 0 0 120 0 120
125 0 125 0 0 55 0 55 -125 0 -125 0 0 65 0 65 140 0 141 0 -3 58 -3 57 -196
3 c-107 1 -198 -1 -202 -4z"/>
<path d="M17857 2244 c-4 -4 -7 -139 -7 -301 l0 -293 205 0 204 0 6 34 c14 71
15 70 -143 80 l-142 9 0 63 0 64 130 0 130 0 0 55 0 55 -130 0 -130 0 0 60 0
60 140 0 139 0 6 33 c3 17 4 43 2 57 l-4 25 -200 3 c-109 1 -202 -1 -206 -4z"/>
<path d="M18630 1951 l0 -301 65 0 65 0 0 110 0 110 33 0 c30 0 36 -6 97 -110
l65 -110 78 0 77 0 -52 83 c-75 120 -88 141 -88 147 0 3 16 14 35 24 121 65
106 267 -24 324 -26 12 -79 17 -193 20 l-158 4 0 -301z m298 159 c30 -28 29
-74 -3 -105 -21 -22 -33 -25 -95 -25 l-70 0 0 75 0 75 73 0 c60 0 77 -4 95
-20z"/>
<path d="M20390 1951 l0 -301 65 0 65 0 0 110 0 110 34 0 c33 0 37 -5 99 -107
l65 -108 76 -3 c42 -2 76 0 76 3 0 3 -31 55 -70 117 l-70 112 31 15 c17 8 43
32 58 55 21 33 26 51 26 105 0 84 -26 130 -93 163 -42 21 -64 23 -204 26
l-158 4 0 -301z m298 163 c29 -20 31 -85 2 -114 -16 -16 -33 -20 -95 -20 l-75
0 0 75 0 75 73 0 c49 0 80 -5 95 -16z"/>
<path d="M21180 2190 l0 -60 85 0 85 0 0 -240 0 -240 65 0 65 0 0 240 0 240
85 0 85 0 0 60 0 60 -235 0 -235 0 0 -60z"/>
<path d="M21977 2244 c-4 -4 -7 -139 -7 -301 l0 -293 70 0 70 0 0 125 0 126
123 -3 122 -3 3 -122 3 -123 64 0 65 0 0 300 0 300 -65 0 -65 0 0 -97 c0 -153
9 -143 -131 -143 l-118 0 -3 118 -3 117 -60 3 c-34 2 -64 0 -68 -4z"/>
<path d="M23837 2243 c-4 -3 -7 -138 -7 -300 l0 -293 70 0 70 0 0 104 0 103
94 5 c108 6 165 30 203 87 27 40 32 140 9 195 -18 43 -70 82 -126 95 -50 12
-303 15 -313 4z m302 -139 c26 -33 27 -75 2 -105 -16 -20 -30 -24 -95 -27
l-76 -4 0 81 0 81 74 0 c69 0 76 -2 95 -26z"/>
<path d="M24803 2188 c-11 -35 -60 -167 -107 -295 -47 -127 -86 -234 -86 -237
0 -4 32 -6 72 -4 l71 3 20 58 19 57 112 0 113 0 18 -60 18 -60 74 0 c73 0 74
1 67 23 -4 12 -43 119 -86 237 -44 118 -89 243 -101 278 l-21 62 -81 0 -81 0
-21 -62z m141 -196 c20 -57 36 -106 36 -108 0 -2 -34 -4 -76 -4 -57 0 -75 3
-72 13 3 6 20 56 38 110 17 54 33 97 35 95 2 -2 19 -50 39 -106z"/>
<path d="M25545 2240 c-3 -6 -5 -141 -4 -301 l2 -291 161 4 c138 3 168 6 206
24 100 47 153 135 154 259 1 115 -17 169 -78 230 -71 71 -120 85 -297 85 -81
0 -140 -4 -144 -10z m295 -128 c43 -21 75 -68 84 -121 7 -45 -10 -135 -31
-168 -23 -34 -74 -53 -147 -53 l-66 0 0 180 0 180 63 0 c39 0 75 -6 97 -18z"/>
<path d="M26420 1950 l0 -300 70 0 70 0 0 300 0 300 -70 0 -70 0 0 -300z"/>
<path d="M26945 2233 c-3 -10 -5 -145 -4 -300 l2 -283 208 0 209 0 0 60 0 60
-140 0 -140 0 0 65 0 64 128 3 127 3 3 53 3 52 -130 0 -131 0 0 60 0 60 140 0
140 0 0 60 0 60 -204 0 c-184 0 -204 -2 -211 -17z"/>
</g>
</svg>
