<?xml version="1.0" standalone="no"?>
<!DOCTYPE svg PUBLIC "-//W3C//DTD SVG 20010904//EN"
 "http://www.w3.org/TR/2001/REC-SVG-20010904/DTD/svg10.dtd">
<svg version="1.0" xmlns="http://www.w3.org/2000/svg"
 width="896.000000pt" height="1200.000000pt" viewBox="0 0 896.000000 1200.000000"
 preserveAspectRatio="xMidYMid meet">
<metadata>
Created by potrace 1.16, written by Peter Selinger 2001-2019
</metadata>
<g transform="translate(0.000000,1200.000000) scale(0.100000,-0.100000)"
fill="#000000" stroke="none">
<path d="M4315 11964 c-233 -14 -449 -44 -652 -90 -927 -209 -1750 -768 -2321
-1579 -110 -157 -190 -294 -292 -500 -283 -575 -411 -1121 -413 -1755 -1 -253
10 -395 48 -642 111 -718 454 -1434 948 -1979 358 -396 726 -675 1182 -899
357 -175 669 -276 1048 -340 625 -105 1246 -55 1836 146 357 123 738 322 1035
542 370 274 733 659 968 1023 312 485 502 986 592 1569 51 329 49 835 -5 1170
-108 668 -364 1273 -758 1795 -250 331 -605 666 -946 895 -450 301 -965 509
-1470 594 -210 35 -618 61 -800 50z m425 -114 c590 -45 1146 -225 1650 -533
490 -299 941 -746 1242 -1229 315 -507 505 -1053 574 -1653 24 -206 24 -616 1
-815 -44 -366 -122 -680 -249 -1000 -192 -484 -465 -897 -838 -1271 -281 -282
-490 -444 -805 -626 -961 -555 -2115 -642 -3159 -238 -670 259 -1252 712
-1694 1318 -486 666 -741 1488 -718 2317 20 776 270 1530 710 2144 775 1082
2018 1682 3286 1586z"/>
<path d="M4240 11754 c-19 -2 -87 -9 -150 -15 -371 -35 -787 -158 -1165 -344
-606 -298 -1117 -751 -1486 -1320 -327 -503 -538 -1118 -589 -1715 -27 -317
-3 -778 54 -1049 8 -36 20 -91 26 -121 7 -30 29 -117 51 -192 254 -889 862
-1677 1666 -2161 467 -280 980 -446 1542 -497 163 -15 573 -7 742 14 799 101
1531 466 2117 1056 555 558 911 1250 1036 2017 40 241 49 388 43 677 -8 407
-55 701 -172 1068 -239 746 -712 1411 -1328 1867 -520 384 -1099 619 -1717
697 -108 14 -594 27 -670 18z m710 -83 c367 -51 712 -156 1055 -321 132 -63
179 -89 340 -189 482 -297 900 -724 1203 -1228 254 -420 436 -942 496 -1418
51 -399 37 -834 -40 -1208 -113 -559 -349 -1069 -707 -1532 -120 -154 -422
-461 -584 -592 -506 -411 -1105 -674 -1736 -764 -183 -26 -477 -38 -687 -27
-1060 53 -2058 608 -2709 1506 -526 726 -764 1629 -666 2532 90 835 464 1617
1055 2210 569 571 1300 936 2070 1034 69 9 141 18 160 20 19 2 161 3 315 1
220 -2 313 -8 435 -24z"/>
<path d="M5135 10533 c-408 -22 -818 -211 -1130 -519 -192 -190 -310 -383
-390 -637 -27 -89 -65 -266 -65 -309 0 -5 -65 -8 -145 -8 l-145 0 0 -65 0 -65
136 0 136 0 -6 -32 c-7 -41 -42 -288 -96 -683 -169 -1236 -187 -1338 -281
-1580 -48 -123 -87 -188 -165 -266 -105 -108 -207 -149 -372 -149 -117 0 -164
11 -277 65 -117 56 -203 133 -246 220 -45 93 -41 115 71 325 136 255 190 392
174 434 -10 25 -99 21 -161 -8 -97 -45 -166 -135 -199 -259 -18 -67 -18 -253
0 -338 42 -198 201 -369 416 -448 123 -45 235 -62 410 -62 515 -1 917 243
1130 686 95 197 126 322 180 710 17 127 51 370 75 540 24 171 60 430 81 578
l37 267 113 0 112 0 87 -132 c100 -154 324 -501 388 -603 24 -38 108 -169 186
-290 79 -120 149 -232 157 -247 12 -23 14 -154 13 -835 -1 -444 -1 -877 0
-960 l1 -153 65 0 65 0 0 215 0 215 218 2 217 3 5 715 5 715 239 370 c132 204
296 458 364 565 69 107 176 273 238 368 63 95 114 175 114 178 0 2 -118 4
-262 3 l-263 0 -136 -212 c-169 -262 -600 -929 -681 -1054 -33 -51 -64 -93
-68 -93 -4 0 -10 6 -13 14 -3 8 -78 126 -166 262 -89 137 -282 436 -429 664
l-268 415 -142 3 c-78 1 -142 6 -142 10 0 4 20 153 45 332 63 447 105 626 188
785 39 76 155 194 224 229 118 59 257 70 344 26 24 -13 109 -69 189 -125 226
-158 329 -215 391 -215 38 0 46 31 30 119 -28 154 -143 256 -331 294 -80 17
-183 24 -265 20z"/>
<path d="M8320 2150 c-183 -22 -296 -93 -362 -228 -31 -62 -33 -73 -33 -172 0
-95 3 -111 28 -162 57 -115 171 -187 422 -267 143 -45 225 -87 252 -128 27
-41 21 -98 -13 -135 -88 -92 -225 -96 -466 -14 l-129 43 -22 -27 c-12 -14 -40
-63 -62 -108 l-39 -82 20 -21 c27 -26 186 -86 294 -110 103 -23 276 -25 371
-5 266 57 422 289 350 525 -39 129 -151 215 -388 298 -278 97 -323 125 -323
207 0 54 19 80 77 103 86 33 186 25 342 -26 89 -29 139 -41 148 -35 18 11 93
177 93 204 0 16 -14 27 -57 46 -174 77 -359 112 -503 94z"/>
<path d="M4693 2143 c-18 -7 -19 -1383 -1 -1401 15 -15 231 -16 259 -2 18 10
19 25 19 402 l0 392 409 -408 c336 -335 413 -407 433 -404 l23 3 3 697 c2 695
2 697 -18 708 -14 7 -60 9 -133 6 -91 -4 -114 -9 -125 -23 -10 -14 -12 -100
-10 -390 2 -205 1 -373 -2 -373 -2 0 -185 180 -405 400 -388 387 -413 409
-452 393z"/>
<path d="M84 2127 c-12 -7 -14 -110 -14 -692 0 -666 1 -685 19 -695 11 -5 69
-10 130 -10 86 0 113 3 125 16 14 13 16 53 16 280 l0 264 253 0 c183 0 256 3
265 12 18 18 16 222 -1 237 -9 7 -99 12 -263 13 l-249 3 -3 158 -3 157 320 0
c176 0 326 3 335 6 13 5 16 26 16 124 0 84 -4 121 -12 127 -17 10 -915 10
-934 0z"/>
<path d="M1465 2133 c-51 -13 -67 18 239 -473 l196 -314 0 -296 c0 -217 3
-299 12 -308 17 -17 239 -17 256 0 9 9 12 91 12 306 0 203 4 300 12 315 6 12
112 185 236 385 147 238 221 367 215 373 -12 12 -291 15 -303 3 -9 -9 -196
-320 -260 -432 -19 -34 -37 -61 -40 -62 -5 0 -214 347 -269 447 -14 24 -34 45
-45 48 -36 7 -240 14 -261 8z"/>
<path d="M3245 2130 l-120 -5 -3 -685 c-2 -635 -1 -686 15 -698 21 -15 225
-17 254 -2 18 10 19 24 19 246 l0 235 92 -3 92 -3 104 -225 c57 -124 111 -233
119 -242 14 -16 35 -18 155 -18 116 0 140 3 145 16 6 15 -71 191 -174 396 -29
59 -53 111 -53 116 0 5 16 16 36 26 96 45 181 146 214 254 23 75 28 196 10
263 -42 156 -177 280 -345 318 -56 12 -376 19 -560 11z m528 -284 c109 -54
129 -227 36 -310 -52 -47 -91 -56 -256 -56 l-143 0 0 196 0 195 163 -3 c135
-2 168 -6 200 -22z"/>
<path d="M6343 2130 c-13 -5 -23 -13 -23 -17 0 -13 50 -95 333 -551 l126 -202
3 -305 c3 -259 5 -307 18 -315 23 -14 243 -13 258 2 9 9 12 91 12 307 l0 295
74 121 c76 125 176 287 316 513 47 77 78 138 73 143 -4 4 -73 9 -152 10 -141
2 -144 2 -162 -22 -10 -13 -78 -126 -151 -251 -73 -125 -135 -228 -138 -228
-3 0 -72 113 -153 250 l-148 250 -97 0 c-53 0 -113 2 -132 5 -19 3 -45 0 -57
-5z"/>
</g>
</svg>
