<?xml version="1.0" standalone="no"?>
<svg version="1.0" xmlns="http://www.w3.org/2000/svg"
 width="141.45pt" height="154.42pt" viewBox="0 0 141.45 154.42"
 preserveAspectRatio="xMidYMid meet">
<g transform="translate(35.27,0) scale(0.65)">
<g transform="translate(-19.377821,175.714245) scale(0.100000,-0.100000)" fill="#000000" stroke="none">
<path d="M324 1751 c-12 -5 -40 -27 -62 -48 -105 -100 -89 -274 53 -571 117
-243 280 -447 500 -626 62 -51 71 -55 85 -41 13 14 11 19 -30 53 -200 164
-356 366 -476 616 -131 275 -154 422 -80 501 40 42 89 47 142 14 75 -46 175
-243 239 -469 31 -108 48 -140 74 -140 26 0 34 12 80 130 77 198 176 342 257
376 32 13 38 13 59 0 47 -31 57 -135 25 -260 -31 -122 -160 -357 -286 -522
-61 -80 -68 -114 -29 -140 22 -15 27 -15 48 -1 41 27 193 266 266 419 77 163
95 229 96 358 0 100 -3 120 -22 157 -31 57 -67 83 -116 83 -116 0 -256 -138
-343 -338 -18 -42 -35 -70 -37 -62 -46 151 -119 313 -179 396 -48 67 -127 117
-191 121 -28 1 -62 -1 -73 -6z"/>
</g>
</g>
<g transform="translate(8.00,109.42) scale(0.02669,-0.02669)" fill="#000000" stroke="none">
<path transform="translate(0.0,0)" d="M572 486Q572 467 543 466L525 458L507 462L481 448Q459 459 449 459Q448 459 440.5 457.5Q433 456 427 456Q419 456 415 457L393 450L388 451L386 450L331 449L325 439L300 447L290 442L266 440L251 443Q242 442 233.5 440.5Q225 439 224 439L211 437L205 433L211 415L219 394L215 378L225 370L217 358Q219 350 219 345Q219 336 214 323L211 290L227 289L259 297L273 289Q276 289 281 289Q285 288 286 288H289L295 294L326 299L348 291Q364 295 371 296H404L423 300L434 294L449 296Q457 297 461 297L519 304L526 301Q529 302 533 302Q540 302 550 298Q563 280 563 266Q563 261 562 258L543 255L526 246H511L503 239L475 241L450 234L421 229L415 230L413 228L375 232L362 227L344 229Q329 222 307 222H298Q293 221 277 216Q256 228 256 228Q256 228 250.0 223.0Q244 218 236 216L217 218H205Q203 208 199 158Q203 146 203 137L193 112L199 100L191 84L194 69L189 60Q176 -8 171 -27Q163 -57 153 -62L131 -51H104L111 -20V-6L117 0L119 13L120 18L118 19V31L109 41L111 47Q111 68 119 84L115 88L117 100L114 114L120 130L118 166L125 201L120 213V218L104 212L81 224L71 222Q61 220 59 220Q31 220 31 253Q31 295 73 295Q94 295 103 294L131 291L129 299L130 331L124 333L128 394L118 421L117 430L110 434L78 416L62 438Q44 446 44 469Q50 478 50 483V506L78 504Q99 519 116 519Q115 519 145 515Q163 517 211 520L247 515L274 516L278 519Q285 523 293 523Q300 523 304 521L308 520Q317 521 335.0 523.5Q353 526 362 527L363 524L369 519H373Q378 519 387.0 520.5Q396 522 400 522H403L430 518L459 515Q474 518 487 518Q497 518 506 515H523Q532 518 543 518Q572 518 572 486Z"/>
<path transform="translate(585.0,0)" d="M424 372 416 339 379 334 359 321 346 327 332 319 317 313 307 306V302L286 292L272 274H265Q249 257 242 253L228 230L223 228Q220 220 216 204L202 199L196 187L188 177L186 162L178 159V144L175 141Q178 136 182 130L167 124L165 111L155 94L161 81L148 63Q150 53 150 49Q150 48 150 45Q149 42 149 40L151 31L168 13L155 -10L143 -19L115 -33L78 -18V5L74 14L77 29Q75 45 75 53Q75 56 76 61Q76 66 76 68L75 78Q68 85 68 94Q68 102 75 112Q75 117 73 142L76 145L73 158L75 170L73 177L76 200L70 210L74 221L70 234Q71 240 71 250Q71 265 67 270L71 276L67 294L58 307L63 323L59 329L55 353V361Q50 367 50 376Q50 396 94 410L119 405L124 386L134 373L131 346Q134 326 138 302L141 286Q142 284 143 275Q143 269 138 262L141 242L139 220L135 210L138 206L140 196Q146 203 147 211L151 226Q154 232 160 235L164 250L178 258L180 270L191 282L199 297Q212 311 224 315L226 318L235 332L245 334L248 337L252 343L263 349L269 356L275 355L283 359L287 365L299 371L316 382L340 390Q354 392 355 392Q355 391 355 391Q354 391 354 390H355Q359 390 367 394Q372 398 381 398Q385 398 395 396Q421 395 424 372Z"/>
<path transform="translate(996.0,0)" d="M442 405 432 392 440 368 427 353 422 332 419 327 421 322Q421 308 414 301L412 298V294Q415 287 415 281Q415 276 414 274L415 270L411 259L414 247L406 239L409 225L415 218L406 210V194L399 178L404 162L398 154L408 147L394 124L393 121L403 119L396 96V92Q396 85 395 81L396 78L412 76L425 56L418 41L429 42Q435 30 436 21L421 6Q414 -1 401 -8L384 -17L379 -12L369 -18L338 18V35Q332 55 332 72V78L326 137L334 179L328 203L311 175L302 149L294 145L280 123L255 100L248 88L226 69L221 56L189 36L155 -2L136 -6L123 -16Q98 -15 85 3Q40 25 38 66L43 69L42 75L41 87L35 100L41 114L43 135L50 168Q50 169 50 172Q49 174 49 176Q49 180 51 186Q50 188 50 194Q50 201 56 217L63 220Q57 225 57 231Q57 235 58 237Q57 240 57 244Q57 256 69 262Q72 272 80 282L75 290L87 305V309Q87 328 100 344L99 362L103 366Q103 367 103 369Q102 371 102 372Q102 378 106 382V388Q110 398 127.0 418.0Q144 438 152 453L157 448L168 453L173 455L206 470L283 466V459L307 454Q330 454 337 439Q337 442 338 446Q338 449 338 450L359 431L378 427L414 436L427 411ZM347 353 343 360 335 362 304 387 284 390H268L266 392L258 389L249 394H223L226 390L203 382L199 377L196 376Q178 361 171 351L164 327L160 318L170 304L153 291L155 287Q144 268 144 250L136 240V222L128 213L126 204L123 202V188L120 183Q120 171 118 164L120 159L111 140L115 134L108 124L115 105L104 91L106 72V69L110 67L115 68Q120 73 125 77L123 85L137 87L140 94L199 142L205 144L212 161Q218 163 229 169L235 185H243L240 202L254 204Q256 208 260.5 214.0Q265 220 270 225L321 293L329 308L328 312L335 323L337 334L346 342Z"/>
<path transform="translate(1531.0,0)" d="M682 162Q682 154 669 141L658 124L654 104L645 101L643 95Q627 90 620 70Q609 56 596 50Q591 45 587 43L582 34L573 32L547 18L513 14L504 16L489 13L483 20Q469 27 463 34Q451 37 445 53Q428 73 428 85V88L421 100L419 102L413 120L404 139L406 162L396 175L381 261Q378 278 378 290L376 295L371 302L362 290L326 252L313 231L306 217L295 201L287 193L288 188L274 157L266 147L256 145L247 136Q247 116 228 110L226 108Q217 86 206 81L197 67Q175 47 168 42Q165 32 157 25Q155 22 150 17Q147 0 122 -7L111 -10Q91 -9 78 13L63 38L68 62L66 75L68 77L69 90L58 114L66 126L62 139L69 153L71 176L67 180L75 194L72 201L71 217L75 247Q73 257 73 260Q73 262 74 264Q74 267 74 268L69 276L72 308L71 319L74 335L70 362L88 392Q119 387 131.0 378.5Q143 370 143 348V339L150 327L147 306L151 266L144 247L147 226V209L139 198L145 180L139 169L138 158L144 147L136 126L133 117V108L138 98L155 115Q155 130 165 135Q166 145 173 150L170 153L183 165L186 169V178L202 190L206 200L215 206L254 250Q249 244 221 213V211L223 218L236 233L245 250V260L260 265L262 278L266 282L267 287V294L281 308Q281 310 281 313Q280 316 280 317Q280 335 300 337Q309 355 327 358L333 367L335 369Q344 382 362 387L371 398H395L407 384L418 378L419 375L426 373L428 352L445 342L438 320L449 296V268L457 230L459 194L468 173L474 147Q480 141 483 130L501 125V105L511 94V91L515 90L519 84L523 89Q521 89 528 88Q539 88 551 108L563 111L566 116Q569 124 578 128L585 127L589 131L590 136L593 140Q603 147 606 161L617 173L619 182L626 198L645 205L672 196L681 167Q681 166 682 165Q682 163 682 162Z"/>
<path transform="translate(2221.0,0)" d="M632 74 626 63Q626 34 606 18Q606 8 599 2L594 -9L581 -18L575 -29L535 -50L516 -55L487 -57L471 -50L458 -51L445 -42L435 -41L395 -20L359 10Q343 24 311 50L289 80L271 95L268 102L259 113Q246 129 228 147L211 153L192 191L195 206Q201 238 227 242L246 236L262 220L279 209H295L299 206Q307 206 312 205Q322 210 347 216L356 218L362 231H386Q397 240 409 241H411Q414 248 419 258L438 267L446 275L461 300H468Q472 310 476 328L485 334L478 338L482 355Q480 359 471 362L459 358L455 366L445 370L442 374Q427 376 399 378V382L393 378Q385 380 381 380Q368 380 343 366H329Q291 353 286 347L264 340L233 315L204 286V282L185 249L179 230L175 228V224Q172 218 170 213L164 210L166 207L163 202Q162 200 162 197Q162 192 166 188Q166 167 156 161Q154 157 154 153Q154 150 155 148Q155 131 148 120Q143 115 142 113L145 98L142 78L143 62Q135 44 135 33Q137 23 137 22Q137 11 124.5 -1.0Q112 -13 101 -13Q87 -13 72 4L61 35L64 53L61 92L64 102V134L66 147V158Q66 178 68.0 198.5Q70 219 70 220V237L71 246V274L74 282L71 294L75 327V362L71 382L76 390L75 394L71 448L64 481V490L70 524L66 537L64 561Q62 585 62 582Q62 617 117 619L139 631L135 582L139 554L132 525L134 493L139 475L136 458L138 434L135 414L140 393L138 388L142 378L137 350V344L142 325Q137 323 137 310L134 286L136 277L148 298L154 321Q154 321 168 344Q168 354 175 362H186L194 379L217 390Q231 404 249 410L255 415L271 423L284 426Q305 444 375 450L453 444L469 435L477 434L494 416L495 422Q508 416 514 403Q519 404 518 404Q522 404 526 401L547 358L546 353Q551 343 551 335Q551 321 540 307V301L526 264L505 235L499 234Q499 234 487 218Q476 218 470 224V208L462 203L456 192L438 187Q434 186 429 178Q360 151 352 151Q349 151 340.5 152.5Q332 154 326 154Q322 154 320 153Q321 150 331 131L344 123L362 91L389 75L391 71L400 66L413 51L437 32L469 19L487 14L500 15L507 18Q527 21 545 34L562 65L572 77L578 95Q593 100 602 100Q625 100 632 74Z"/>
<path transform="translate(2867.0,0)" d="M494 597Q494 577 470 557L462 562L446 553L426 592Q424 607 418 617L412 614L395 623L389 624L376 616L355 622L348 619Q339 609 330 609Q326 609 323 610V600Q313 584 298 561Q297 551 291 524L282 518L278 507L273 498L278 478L266 460L262 445L258 437L259 423L245 387L247 370Q246 366 235 342L234 338Q244 342 251 343L257 342Q259 343 266 345H269Q269 345 303 343L306 345Q318 347 320 347Q330 347 342 342Q354 345 363 345Q371 345 377 342H386L399 339Q435 338 435 310Q435 302 432 291L387 278L361 282Q350 279 324 275L319 280Q312 273 300 273H289L261 260L247 267H242Q234 257 222 254L223 248L219 234L225 217L212 191L215 151L210 137L213 123L203 101L206 89Q207 88 207 84Q207 83 203.0 62.5Q199 42 199 22V13Q200 12 210 0L203 -17L210 -37L205 -53L216 -102L219 -156L235 -176L226 -198Q238 -219 238 -232V-235Q238 -237 239 -240Q239 -244 239 -245Q239 -283 195 -285L187 -269L175 -262L173 -244L153 -188V-177Q149 -159 149 -156Q149 -151 150 -149L147 -132L150 -115L147 -104V-82L137 -19L139 -17L137 -6L139 8L132 21L138 32V84L143 90V126L146 134L143 165L147 177Q149 194 159 253H155L142 257H127L99 253L82 257L53 251L43 253Q38 252 31 252Q-13 272 -16 283L-21 300Q-8 339 15 339Q16 339 49 332L107 330L135 336L159 335L168 334L171 347L173 376L178 388L175 408Q175 419 183 427L182 438L193 450L198 480L202 485L199 498Q211 512 211 521Q210 527 210 527Q210 519 225 573L232 578L233 600L235 595V598Q235 615 249 623L255 632L267 661H269Q280 661 280 674V678L308 688H316Q329 692 343 692H350L355 694L377 699L403 693Q405 692 411 690Q421 694 425 694Q439 694 451 673L465 663L475 643L490 628L494 600Z"/>
<path transform="translate(3299.0,0)" d="M602 58Q602 46 584 29L576 26L569 17L551 12Q546 5 541 5Q540 5 539 6Q537 6 536 6Q514 -5 483 -5H475L450 0L433 8L395 40L387 67L371 80Q374 84 374 93Q374 99 366 113L369 137V141Q369 153 362 172L368 202L355 176L340 174L338 153Q330 149 319 149L308 125L295 110Q287 101 281 100L278 98L242 61H238L219 39L201 30L191 17L168 10L135 -3L115 7Q95 7 87 25L78 30Q78 33 79 38Q79 43 79 45L63 59L67 65L55 93L59 97L57 99Q57 101 57 105Q56 108 56 110Q56 121 59 131L60 157L56 178Q61 186 61 192Q61 199 55 205L66 213V225L62 258L73 322Q73 338 64 369Q67 401 106 404L114 401L128 399L146 379L140 353L138 310L141 277L135 265L138 257L133 241V231L131 228Q132 225 132 219Q132 206 128 192L133 185L129 170L131 158V144Q136 138 136 129Q136 121 132 113V109Q137 92 137 87L146 78Q152 82 160 88Q163 98 174 101V111Q180 111 193 114L195 123L212 130L215 133Q222 140 238 146V150L257 164Q264 183 282 189Q293 200 297 202L310 219V222L314 224L323 228L328 242L349 251L353 252Q353 252 360 259V268L366 270Q369 286 382 294L397 328L402 346L404 350H408L415 355L409 357Q420 375 426 395L455 396L478 377L488 361L477 318L462 298L450 259L440 253V238L434 227L437 209L429 202L433 170L435 125H440V99L454 82L467 75L468 70Q475 69 485 65L510 63L525 67L552 80Q560 84 572 84Q602 84 602 58Z"/>
<path transform="translate(3937.0,0)" d="M424 372 416 339 379 334 359 321 346 327 332 319 317 313 307 306V302L286 292L272 274H265Q249 257 242 253L228 230L223 228Q220 220 216 204L202 199L196 187L188 177L186 162L178 159V144L175 141Q178 136 182 130L167 124L165 111L155 94L161 81L148 63Q150 53 150 49Q150 48 150 45Q149 42 149 40L151 31L168 13L155 -10L143 -19L115 -33L78 -18V5L74 14L77 29Q75 45 75 53Q75 56 76 61Q76 66 76 68L75 78Q68 85 68 94Q68 102 75 112Q75 117 73 142L76 145L73 158L75 170L73 177L76 200L70 210L74 221L70 234Q71 240 71 250Q71 265 67 270L71 276L67 294L58 307L63 323L59 329L55 353V361Q50 367 50 376Q50 396 94 410L119 405L124 386L134 373L131 346Q134 326 138 302L141 286Q142 284 143 275Q143 269 138 262L141 242L139 220L135 210L138 206L140 196Q146 203 147 211L151 226Q154 232 160 235L164 250L178 258L180 270L191 282L199 297Q212 311 224 315L226 318L235 332L245 334L248 337L252 343L263 349L269 356L275 355L283 359L287 365L299 371L316 382L340 390Q354 392 355 392Q355 391 355 391Q354 391 354 390H355Q359 390 367 394Q372 398 381 398Q385 398 395 396Q421 395 424 372Z"/>
<path transform="translate(4348.0,0)" d="M353 359Q353 350 335 342Q331 337 320 333Q306 327 300 323L279 330Q263 318 238 318L226 321L217 313H190L173 302Q162 306 152 306Q149 304 138 302Q133 302 127 305L124 267L125 239L122 204L124 166L127 148V134L141 104Q138 101 138 97Q138 90 160 86L162 74L169 71L181 63L189 57Q199 59 203 59Q212 59 221 56Q225 58 238 70Q247 78 255 78Q256 78 258 78Q260 77 261 77Q270 96 293 102Q314 102 328 89V82Q328 48 304 39Q295 18 266 12L254 1H241L218 -5Q210 -7 195 -7Q187 -7 178 -3H165L130 16L121 19L100 47L88 60L66 110L58 157L60 169L52 180L57 194L52 216L59 223L61 236L58 248L60 266L56 282L61 287V303L54 306L35 302L17 315H14Q-16 315 -16 347V350L-28 369L-9 387L16 383L29 385L48 380H69V400L56 428L69 435L64 450L65 481L57 494Q50 505 50 514Q50 525 55 532L58 546L66 554Q93 559 102 559Q134 559 137 530L134 525Q140 516 140 508Q140 507 139 503L137 497L136 490L140 477L139 472L141 458L132 446L137 426L133 402L141 393L133 375L164 379L219 374L263 381L278 380L283 381H322Q353 381 353 359Z"/>
</g>
</svg>
