<?xml version="1.0" encoding="utf-8"?>
<!-- Generator: Adobe Illustrator 27.0.1, SVG Export Plug-In . SVG Version: 6.00 Build 0)  -->
<svg version="1.1" id="Ebene_1" xmlns="http://www.w3.org/2000/svg" xmlns:xlink="http://www.w3.org/1999/xlink" x="0px" y="0px"
	 viewBox="0 0 629 117.8" style="enable-background:new 0 0 629 117.8;" xml:space="preserve">
<style type="text/css">
	.st0{fill:#3C3935;}
</style>
<path class="st0" d="M134.8,35.7c-1.1-4.2-2.9-11-3.9-14.6h-14v0.5c7.5,0.1,9.2,1.4,12.3,4.9C130.8,28.4,132.7,31.4,134.8,35.7"/>
<path class="st0" d="M73.5,91.4c-2.8-3-5.1-6-9.7-12.7c-3.6-5.4-8.9-13.6-11.1-17.4l-1.2-2.1c-2.6,1.5-5.8,2.3-10.1,2.5
	c3.6,0.4,5.6,1.8,7.9,5.4c1.1,1.8,2.2,3.6,3.4,5.6c3,4.9,6,9.9,9.2,14.2c4.7,6.7,8.8,8.9,17.2,9.5l0.6,0c0.2,0,0.5,0,0.7,0.1
	C77.9,95.4,75.7,93.8,73.5,91.4"/>
<path class="st0" d="M129.1,90.3c-3,3.6-4.8,4.9-12.3,4.9v0.5h14c1.1-3.6,2.9-10.4,3.9-14.6C132.7,85.3,130.8,88.4,129.1,90.3"/>
<path class="st0" d="M60.7,25.4c-3.8-2.5-9-3.7-17-3.8c10.8,1,17.2,8.2,17.2,19.7c0,7.5-2.4,12.7-7.5,16.6c-0.5,0.5-1.1,0.9-1.7,1.2
	l1.9-0.8c9.5-4.1,14.3-10.4,14.3-18.8C67.9,33.3,65.4,28.3,60.7,25.4"/>
<path class="st0" d="M30.9,82.7V30c0-3.3,0.4-5.4,2.3-6.9c1-0.8,2.6-1.3,4.9-1.6H18.1c5.5,1.4,6.7,4.1,6.7,12.9v48.2
	c0,8.9-1.1,11.7-6.6,13h19.3C32.3,94.3,30.9,91.4,30.9,82.7"/>
<path class="st0" d="M97,82.7V30c0-3.3,0.4-5.4,2.3-6.9c1-0.8,2.6-1.3,4.9-1.6H84.2C89.7,23,91,25.7,91,34.5v48.2
	c0,8.9-1.1,11.7-6.6,13h19.3C98.4,94.3,97,91.4,97,82.7"/>
<path class="st0" d="M119.3,54.8c-0.1,0.1-0.1,0.1-0.2,0.2c0,0,0,0,0,0c-0.8,0.6-1.9,1.1-3.2,1.4c-0.8,0.5-2,0.8-3.2,0.8
	c-0.1,0-0.1,0-0.2,0v0c0,0,0,0,0.1,0c0,0,0,0-0.1,0v0c0.1,0,0.1,0,0.2,0c1.2,0,2.4,0.3,3.2,0.8c1.3,0.3,2.4,0.8,3.2,1.4c0,0,0,0,0,0
	c0.1,0.1,0.2,0.1,0.2,0.2c1.6,1.4,2.4,3.5,3.1,6.6V48.2C121.7,51.3,120.9,53.4,119.3,54.8"/>
<path class="st0" d="M225.3,20.1c2.1,0,3.7,0.4,4.9,1.3c1.1,0.8,1.9,2.2,1.9,4.2c0,4.3-3.7,6-6.4,6c-0.3,0-0.6,0-0.8-0.1l-2-0.5v4.6
	c0,2.5,0.2,2.5,2.9,2.8v0.8h-8.1v-0.8c2.5-0.3,2.6-0.4,2.6-2.9V23.8c0-2.6-0.3-2.7-2.6-2.9v-0.8L225.3,20.1L225.3,20.1z M223,29.9
	c0.3,0.2,1.1,0.4,2.1,0.4c2,0,4.4-1,4.4-4.7c0-3.2-2.1-4.5-4.6-4.5c-0.8,0-1.5,0.1-1.6,0.3c-0.2,0.2-0.3,0.6-0.3,1.3L223,29.9
	L223,29.9z"/>
<path class="st0" d="M266.6,39.3c-0.4,0-0.7,0-1.1-0.1c-2.1-0.1-3.3-0.7-4.6-2.5c-1.1-1.5-2.1-3.3-3.1-4.8c-0.6-0.9-1-1.1-2.5-1.1
	h-1v4.6c0,2.5,0.3,2.6,2.7,2.9v0.8h-7.8v-0.8c2.4-0.3,2.6-0.4,2.6-2.9V23.7c0-2.5-0.3-2.6-2.6-2.8v-0.8h7.5c2.1,0,3.6,0.3,4.7,1
	c1.2,0.8,2,2.1,2,3.9c0,2.5-1.6,4.1-3.8,5c0.5,0.9,1.8,2.9,2.7,4.2c1.1,1.5,1.6,2.3,2.3,3c0.8,0.8,1.5,1.2,2.1,1.3L266.6,39.3
	L266.6,39.3z M255.8,29.8c1.5,0,2.5-0.2,3.2-0.8c1.1-0.8,1.6-2,1.6-3.6c0-3.1-2.1-4.3-4.3-4.3c-0.8,0-1.3,0.1-1.5,0.3
	c-0.3,0.2-0.3,0.5-0.3,1.3v7.2L255.8,29.8L255.8,29.8z"/>
<path class="st0" d="M282.3,39.1v-0.8c2.4-0.3,2.6-0.4,2.6-2.9V23.8c0-2.5-0.2-2.6-2.6-2.9v-0.8h7.8v0.8c-2.4,0.3-2.7,0.4-2.7,2.9
	v11.6c0,2.5,0.2,2.6,2.7,2.9v0.8H282.3L282.3,39.1z"/>
<path class="st0" d="M325.8,20.9c-2,0.3-2.5,0.5-3.5,3.2c-0.8,1.9-4.8,11.7-6.3,15.3h-1c-1.7-4.7-4.2-11.5-5.9-15.9
	c-0.8-2.2-1.3-2.5-3.1-2.6v-0.8h7.4v0.8c-2.2,0.2-2.3,0.6-1.9,1.7c0.7,2.1,2.9,7.9,4.7,12.8c1.6-3.8,3.5-8.5,4.9-12.2
	c0.6-1.7,0.3-2-2.1-2.3v-0.8h6.7V20.9z"/>
<path class="st0" d="M349.4,39.1v-0.8c1.9-0.2,2.1-0.5,1.7-1.6c-0.4-1.1-1-2.6-1.6-4.4h-6.3c-0.5,1.3-0.9,2.5-1.3,3.7
	c-0.6,1.9-0.2,2.1,2.2,2.4v0.8h-6.8v-0.8c1.8-0.2,2.3-0.4,3.3-3.1l6.1-15.3l0.9-0.2c1.8,5,3.9,10.5,5.7,15.6c0.9,2.5,1.2,2.8,3.3,3
	v0.8L349.4,39.1L349.4,39.1z M346.5,23.5c-0.9,2.5-1.9,5.2-2.8,7.5h5.5L346.5,23.5z"/>
<path class="st0" d="M385.4,24.7c-0.3-0.9-0.6-1.9-0.9-2.4c-0.5-0.8-0.8-1-2.4-1h-2.9v14.2c0,2.3,0.2,2.6,3,2.8v0.8h-8.5v-0.8
	c2.7-0.2,3-0.5,3-2.8V21.2H374c-1.6,0-2.1,0.2-2.6,1.1c-0.3,0.6-0.6,1.3-1,2.4h-0.9c0.2-1.8,0.3-3.6,0.4-5.3h0.7
	c0.4,0.7,0.8,0.7,1.6,0.7h11.6c0.8,0,1.1-0.1,1.5-0.7h0.7c0,1.4,0.1,3.5,0.3,5.2L385.4,24.7L385.4,24.7z"/>
<path class="st0" d="M410.9,20.1c2.1,0,3.7,0.4,4.9,1.3c1.1,0.8,1.9,2.2,1.9,4.2c0,4.3-3.7,6-6.4,6c-0.3,0-0.6,0-0.8-0.1l-2-0.5v4.6
	c0,2.5,0.2,2.5,2.9,2.8v0.8h-8.1v-0.8c2.5-0.3,2.6-0.4,2.6-2.9V23.8c0-2.6-0.3-2.7-2.6-2.9v-0.8L410.9,20.1L410.9,20.1z M408.5,29.9
	c0.3,0.2,1.1,0.4,2.1,0.4c2,0,4.4-1,4.4-4.7c0-3.2-2.1-4.5-4.6-4.5c-0.8,0-1.5,0.1-1.6,0.3c-0.2,0.2-0.3,0.6-0.3,1.3V29.9
	L408.5,29.9z"/>
<path class="st0" d="M452.1,39.3c-0.4,0-0.7,0-1.1-0.1c-2.1-0.1-3.3-0.7-4.6-2.5c-1.1-1.5-2.1-3.3-3.1-4.8c-0.6-0.9-1-1.1-2.5-1.1
	h-1v4.6c0,2.5,0.3,2.6,2.7,2.9v0.8h-7.8v-0.8c2.4-0.3,2.6-0.4,2.6-2.9V23.7c0-2.5-0.3-2.6-2.6-2.8v-0.8h7.5c2.1,0,3.6,0.3,4.7,1
	c1.2,0.8,2,2.1,2,3.9c0,2.5-1.6,4.1-3.8,5c0.5,0.9,1.8,2.9,2.7,4.2c1.1,1.5,1.6,2.3,2.3,3c0.8,0.8,1.5,1.2,2.1,1.3L452.1,39.3
	L452.1,39.3z M441.3,29.8c1.5,0,2.5-0.2,3.2-0.8c1.1-0.8,1.6-2,1.6-3.6c0-3.1-2.1-4.3-4.3-4.3c-0.8,0-1.3,0.1-1.6,0.3
	c-0.3,0.2-0.4,0.5-0.4,1.3v7.2L441.3,29.8L441.3,29.8z"/>
<path class="st0" d="M479.2,39.1v-0.8c1.9-0.2,2.1-0.5,1.7-1.6c-0.4-1.1-1-2.6-1.6-4.4h-6.3c-0.5,1.3-0.9,2.5-1.3,3.7
	c-0.6,1.9-0.2,2.1,2.2,2.4v0.8h-6.8v-0.8c1.8-0.2,2.3-0.4,3.3-3.1l6-15.3l0.9-0.2c1.8,5,3.9,10.5,5.7,15.6c0.9,2.5,1.2,2.8,3.3,3
	v0.8L479.2,39.1L479.2,39.1z M476.3,23.5c-0.9,2.5-1.9,5.2-2.8,7.5h5.5L476.3,23.5z"/>
<path class="st0" d="M511.9,39.1v-0.8c1.8-0.2,2-0.5,1.5-1.5c-0.7-1.1-2-3.3-3.8-6.2c-1.4,2.1-2.7,4.2-3.6,5.9
	c-0.7,1.2-0.4,1.6,1.5,1.8v0.8h-6.8v-0.8c1.8-0.2,2.6-0.6,3.4-1.7c1.1-1.4,2.3-3.1,4.8-7c-1.5-2.5-2.8-4.5-3.8-6.1
	c-1.3-2-1.6-2.3-3.8-2.6v-0.8h7.3v0.8c-1.8,0.2-1.9,0.5-1.4,1.3c0.9,1.6,2,3.3,3.3,5.3c1.1-1.8,2.2-3.4,3-4.8
	c0.7-1.3,0.5-1.6-1.4-1.8v-0.8h6.7v0.8c-2.2,0.3-2.7,0.5-4,2.3c-1,1.4-1.6,2.2-3.6,5.3c1.6,2.5,3.1,4.9,4.4,7c1.4,2.2,2,2.5,4.1,2.7
	v0.8L511.9,39.1L511.9,39.1z"/>
<path class="st0" d="M535.4,39.1v-0.8c2.4-0.3,2.6-0.4,2.6-2.9V23.8c0-2.5-0.2-2.6-2.6-2.9v-0.8h7.8v0.8c-2.4,0.3-2.7,0.4-2.7,2.9
	v11.6c0,2.5,0.2,2.6,2.7,2.9v0.8H535.4z"/>
<path class="st0" d="M570.5,24.5c-0.5-1.9-1.3-3.8-4.1-3.8c-2.3,0-3.1,1.7-3.1,3.2c0,2,1.3,3,3.7,4.3c3.5,1.8,5,3.2,5,5.9
	c0,3.1-2.7,5.4-6.4,5.4c-1.8,0-3.3-0.5-4.5-1c-0.2-0.8-0.6-2.8-0.8-4.4l0.9-0.2c0.6,2,1.9,4.5,4.9,4.5c2.1,0,3.4-1.5,3.4-3.4
	c0-2.3-1.2-3.2-3.8-4.6c-3.1-1.7-4.8-3.1-4.8-5.8s2.2-5.1,6-5.1c1.6,0,3.2,0.4,3.9,0.6c0.1,1.1,0.2,2.2,0.5,4.1L570.5,24.5
	L570.5,24.5z"/>
<path class="st0" d="M204.7,96.3c-0.7,0-1.2-0.1-1.8-0.1c-3.6-0.2-5.6-1.2-7.8-4.3c-1.8-2.5-3.6-5.7-5.2-8.3c-1-1.6-1.6-1.9-4.2-1.9
	h-1.7v7.8c0,4.2,0.6,4.5,4.5,4.9v1.4H175v-1.4c4.1-0.5,4.5-0.7,4.5-4.9V69.6c0-4.2-0.6-4.4-4.5-4.8v-1.4h12.7c3.6,0,6.1,0.5,8,1.7
	c2,1.3,3.4,3.5,3.4,6.6c0,4.3-2.7,7-6.5,8.6c0.9,1.6,3.1,4.9,4.5,7.1c1.8,2.6,2.8,3.9,4,5.1c1.4,1.5,2.5,2,3.6,2.3L204.7,96.3
	L204.7,96.3z M186.2,80c2.6,0,4.2-0.4,5.5-1.5c1.9-1.5,2.7-3.4,2.7-6.1c0-5.3-3.5-7.3-7.4-7.3c-1.5,0-2.3,0.2-2.6,0.5
	c-0.5,0.3-0.6,0.8-0.6,2.2V80C183.8,80,186.2,80,186.2,80z"/>
<path class="st0" d="M248.6,87.9c-0.3,1.3-1.6,6.5-2.2,7.9h-24.3v-1.4c4.6-0.3,5-0.8,5-4.9V69.8c0-4.4-0.6-4.7-4.3-5v-1.4h15.3
	c4.7,0,6.6,0,7.2-0.1c0.1,1.2,0.3,5,0.5,7.6l-1.5,0.2c-0.5-1.7-0.9-2.7-1.5-3.8c-0.8-1.6-1.9-2-4.9-2h-4.8c-1.6,0-1.6,0.1-1.6,1.6
	v11h5.5c3.7,0,4-0.7,4.6-4.1h1.6v10.3h-1.6c-0.7-3.6-1-4.1-4.6-4.1h-5.5V90c0,3.5,1.1,3.8,3.6,3.8h4.6c3.1,0,3.5-0.5,4.6-1.7
	c0.9-1,2-3.1,2.7-4.6L248.6,87.9L248.6,87.9z"/>
<path class="st0" d="M295.9,95.9v-1.4c4.1-0.4,4.2-0.7,4.2-6l0-20.4c-4.1,9.1-10.7,23.4-12.4,27.8h-1.3c-1.7-4.5-7.4-18.3-11.1-27.3
	c-0.8,17.5-0.9,21.4-0.9,22.4c0,2.8,1.3,3.2,4.7,3.5v1.4h-11.8v-1.4c2.9-0.3,4.1-0.9,4.5-3.6c0.3-2.2,0.3-4,1.6-22.2
	c0.2-2.6-0.3-3.4-4.7-3.8v-1.4h8.7l11,25.3l11.8-25.3h8.7v1.4c-4.3,0.5-4.9,0.9-4.7,4.4l0.2,19.2c0.2,5.3,0.3,5.6,4.8,6v1.4
	L295.9,95.9L295.9,95.9z"/>
<path class="st0" d="M358.1,64.8c-3.5,0.4-4.1,0.9-6.1,4.1c-2.3,3.6-4.1,7.1-6.6,11.5c-0.6,1.1-0.8,1.7-0.8,2.9v6.1
	c0,4.1,0.5,4.4,5.1,4.9v1.4h-14.3v-1.4c4.5-0.6,4.9-0.7,4.9-4.9v-6.5c0-1-0.2-1.5-1-2.9c-1.7-3.3-3.4-6.4-6.1-11.1
	c-1.9-3.4-2.5-4-5.8-4.3v-1.4h12.3v1.4c-3.6,0.5-3.4,1.1-2.5,2.8c2.1,3.8,4.4,8.3,6.6,12.1c1.8-3.3,4.6-8.8,6-11.5
	c1.1-2.5,1-3-2.9-3.4v-1.4h11.3V64.8L358.1,64.8z"/>
<path class="st0" d="M421.6,87.9c-0.3,1.3-1.6,6.5-2.2,7.9h-24.3v-1.4c4.6-0.3,5-0.8,5-4.9V69.8c0-4.4-0.6-4.7-4.3-5v-1.4h15.3
	c4.7,0,6.7,0,7.2-0.1c0,1.2,0.3,5,0.5,7.6l-1.5,0.2c-0.5-1.7-0.9-2.7-1.5-3.8c-0.8-1.6-1.9-2-5-2h-4.7c-1.6,0-1.7,0.1-1.7,1.6v11
	h5.5c3.7,0,4-0.7,4.6-4.1h1.6v10.3h-1.6c-0.7-3.6-1-4.1-4.6-4.1h-5.5V90c0,3.5,1.1,3.8,3.6,3.8h4.6c3.1,0,3.5-0.5,4.6-1.7
	c0.9-1,2-3.1,2.7-4.6L421.6,87.9L421.6,87.9z"/>
<path class="st0" d="M458.2,78.3c4.8,0.8,8.7,3.1,8.7,7.9c0,3.4-1.9,6.1-4.9,7.7c-2.6,1.5-5.1,1.9-8.6,1.9h-12.3v-1.4
	c4.2-0.4,4.5-0.8,4.5-4.8v-20c0-4.2-0.5-4.5-4.5-4.9v-1.4h13.1c3.7,0,6.1,0.7,7.7,1.7c1.7,1.2,2.9,3.1,2.9,5.6
	C464.9,75.4,461,77.6,458.2,78.3 M452.5,77.7c5.5,0,7.7-2.2,7.7-6.3c0-3.5-2.1-6.2-6.9-6.2c-1.4,0-2.3,0.1-2.8,0.5
	c-0.4,0.3-0.6,0.9-0.6,2.5v9.5L452.5,77.7L452.5,77.7z M449.9,89.6c0,3.6,0.9,4.5,4.4,4.5c3.9,0,7.7-2.1,7.7-7.4s-3.6-7.3-9.7-7.3
	h-2.4L449.9,89.6L449.9,89.6z"/>
<path class="st0" d="M521.6,64.8c-3.2,0.3-4.3,0.8-4.4,3.2c0,1.6-0.1,3.7-0.1,8.3v20h-1.9l-21.4-26.1v12.5c0,4.5,0.1,6.7,0.2,8.2
	c0.1,2.5,1.4,3.3,5,3.6v1.4h-12.1v-1.4c3.1-0.2,4.3-1,4.5-3.4c0.1-1.6,0.2-3.8,0.2-8.4V69.9c0-1.4-0.1-2.2-1-3.3
	c-0.9-1.2-2-1.6-4.4-1.8v-1.4h7.5l21.2,25.1V76.3c0-4.6-0.1-6.8-0.2-8.3c-0.1-2.3-1.3-2.9-5.3-3.2v-1.4h12.3L521.6,64.8L521.6,64.8z
	"/>
<path class="st0" d="M567.5,87.9c-0.3,1.3-1.6,6.5-2.1,7.9h-24.3v-1.4c4.6-0.3,5-0.8,5-4.9V69.8c0-4.4-0.5-4.7-4.3-5v-1.4h15.3
	c4.7,0,6.6,0,7.2-0.1c0.1,1.2,0.3,5,0.5,7.6l-1.5,0.2c-0.5-1.7-0.9-2.7-1.5-3.8c-0.8-1.6-1.9-2-4.9-2h-4.8c-1.6,0-1.6,0.1-1.6,1.6
	v11h5.5c3.7,0,4-0.7,4.6-4.1h1.5v10.3h-1.5c-0.7-3.6-1-4.1-4.6-4.1h-5.5V90c0,3.5,1.1,3.8,3.6,3.8h4.6c3,0,3.5-0.5,4.6-1.7
	c0.9-1,2-3.1,2.7-4.6L567.5,87.9L567.5,87.9z"/>
<path class="st0" d="M616.7,96.3c-0.7,0-1.2-0.1-1.8-0.1c-3.6-0.2-5.6-1.2-7.8-4.3c-1.8-2.5-3.6-5.7-5.2-8.3c-1-1.6-1.6-1.9-4.2-1.9
	h-1.7v7.8c0,4.2,0.6,4.5,4.5,4.9v1.4H587v-1.4c4.1-0.5,4.5-0.7,4.5-4.9V69.6c0-4.2-0.6-4.4-4.5-4.8v-1.4h12.7c3.6,0,6.1,0.5,8,1.7
	c2,1.3,3.4,3.5,3.4,6.6c0,4.3-2.7,7-6.4,8.6c0.9,1.6,3.1,4.9,4.5,7.1c1.8,2.6,2.8,3.9,4,5.1c1.4,1.5,2.5,2,3.6,2.3L616.7,96.3
	L616.7,96.3z M598.2,80c2.6,0,4.2-0.4,5.5-1.5c1.9-1.5,2.7-3.4,2.7-6.1c0-5.3-3.5-7.3-7.4-7.3c-1.5,0-2.3,0.2-2.6,0.5
	c-0.5,0.3-0.6,0.8-0.6,2.2V80H598.2z"/>
<polygon class="st0" points="602.4,49.4 550.3,49.7 498.2,49.8 394,50 289.9,49.8 237.8,49.7 185.7,49.4 237.8,49.2 289.9,49.1 
	394,48.9 498.2,49.1 550.3,49.2 "/>
</svg>
