<?xml version="1.0" standalone="no"?>
<!DOCTYPE svg PUBLIC "-//W3C//DTD SVG 20010904//EN"
 "http://www.w3.org/TR/2001/REC-SVG-20010904/DTD/svg10.dtd">
<svg version="1.0" xmlns="http://www.w3.org/2000/svg"
 width="3072.000000pt" height="1024.000000pt" viewBox="0 0 3072.000000 1024.000000"
 preserveAspectRatio="xMidYMid meet">
<metadata>
Created by potrace 1.16, written by Peter Selinger 2001-2019
</metadata>
<g transform="translate(0.000000,1024.000000) scale(0.100000,-0.100000)"
fill="#000000" stroke="none">
<path d="M17728 8029 c-151 -22 -321 -92 -465 -191 -88 -60 -217 -184 -284
-273 -275 -363 -331 -842 -144 -1241 158 -338 458 -601 772 -676 83 -19 124
-23 268 -23 223 1 271 13 560 144 57 26 105 41 130 41 42 0 102 -29 111 -55 4
-9 19 -15 40 -15 41 0 38 -35 38 400 l1 315 118 3 117 3 0 44 0 45 -490 0
-490 0 0 -45 0 -45 133 -1 c72 -1 159 -2 192 -3 l60 -1 0 -165 c-1 -182 -15
-249 -75 -343 -100 -159 -223 -224 -440 -234 -382 -17 -611 205 -695 676 -9
47 -20 184 -25 305 -19 424 21 693 133 911 110 213 336 345 589 345 331 -1
562 -203 661 -577 23 -86 25 -88 55 -91 l32 -3 0 345 0 346 -36 0 c-27 0 -41
-7 -56 -25 -30 -38 -75 -58 -119 -52 -20 3 -82 25 -136 50 -183 84 -371 113
-555 86z"/>
<path d="M3013 7982 c-31 -3 -33 -6 -33 -43 l0 -39 180 0 180 0 0 -1069 0
-1068 -31 -7 c-17 -3 -98 -6 -180 -6 l-149 0 0 -45 0 -45 548 2 547 3 3 30 c4
54 -1 55 -186 62 l-172 6 0 549 0 550 233 -4 c260 -3 283 -9 365 -83 82 -73
108 -164 122 -415 24 -425 55 -534 185 -632 81 -62 165 -83 325 -83 153 1 216
18 284 78 l37 32 -28 33 -28 32 -53 -37 c-97 -68 -209 -54 -259 33 -45 77 -59
159 -73 427 -15 298 -41 381 -154 492 -76 75 -178 129 -299 160 -50 13 -85 26
-77 28 8 3 40 13 70 22 86 26 177 82 245 150 158 157 189 378 82 579 -70 132
-214 235 -402 288 -78 22 -91 22 -665 23 -322 1 -600 -1 -617 -3z m1120 -112
c72 -29 144 -92 180 -157 75 -138 77 -400 5 -563 -69 -155 -169 -199 -450
-200 l-148 0 0 476 0 476 178 -4 c157 -4 184 -7 235 -28z"/>
<path d="M7518 7982 c-37 -3 -38 -4 -38 -43 l0 -39 185 0 184 0 3 -852 4 -853
22 -75 c40 -130 80 -198 167 -286 85 -85 149 -123 275 -163 142 -45 385 -64
544 -41 97 14 236 63 317 111 80 48 181 151 227 232 18 31 43 95 57 141 40
139 43 223 44 1129 l1 657 185 0 185 0 0 46 0 46 -417 -5 c-230 -3 -419 -6
-420 -6 -2 -1 -3 -19 -3 -41 l0 -40 185 0 185 0 0 -818 c0 -782 -1 -822 -20
-896 -29 -115 -93 -229 -170 -306 -113 -113 -231 -158 -435 -167 -297 -13
-454 92 -528 354 -21 77 -22 86 -25 956 l-3 877 186 0 186 0 -3 43 -3 42 -520
0 c-286 0 -537 -1 -557 -3z"/>
<path d="M12153 7983 c-8 -2 -13 -22 -13 -44 l0 -39 175 0 175 0 0 -1068 0
-1069 -112 -6 c-62 -4 -141 -7 -175 -7 l-63 0 0 -45 0 -45 1003 2 1002 3 3
368 2 367 -35 0 c-30 0 -36 -4 -41 -27 -26 -114 -41 -159 -79 -238 -96 -200
-214 -309 -387 -360 -45 -13 -118 -17 -359 -20 -167 -2 -321 -1 -341 2 l-38 6
0 549 0 550 178 -4 c164 -3 180 -5 225 -28 104 -52 164 -152 213 -348 l27
-112 39 0 38 0 -2 518 -3 517 -37 3 c-36 3 -37 2 -48 -40 -48 -191 -105 -305
-177 -352 -74 -49 -118 -58 -290 -64 l-163 -4 0 477 0 477 313 -5 c343 -4 377
-9 489 -69 111 -59 198 -182 257 -364 29 -89 29 -89 65 -92 l36 -3 0 305 0
306 -77 1 c-733 5 -1791 6 -1800 2z"/>
<path d="M21305 7982 c-3 -3 -5 -23 -5 -44 l0 -38 175 0 175 0 0 -1070 0
-1070 -162 0 c-90 0 -169 -4 -176 -9 -8 -5 -12 -23 -10 -47 l3 -39 988 -3 987
-2 0 371 0 370 -37 -3 -37 -3 -13 -65 c-49 -243 -213 -469 -391 -539 -94 -37
-169 -43 -484 -35 l-298 7 0 548 0 549 150 0 c126 0 158 -3 204 -21 113 -42
185 -150 236 -352 l28 -112 36 -3 36 -3 0 521 0 521 -37 -3 -36 -3 -24 -90
c-35 -133 -77 -216 -137 -273 -78 -74 -122 -87 -301 -87 l-150 0 -3 473 -2
472 252 0 c284 0 357 -8 455 -47 134 -53 258 -213 314 -405 22 -77 22 -78 56
-78 l33 0 0 304 c0 271 -2 305 -16 310 -20 8 -1801 5 -1809 -2z"/>
<path d="M25498 7982 l-108 -3 0 -39 0 -40 180 0 180 0 -2 -1072 -3 -1073
-177 -3 -178 -2 0 -45 0 -45 545 0 545 0 0 44 0 43 -77 7 c-42 3 -120 6 -174
6 l-98 0 -5 43 c-5 36 -5 196 3 915 l1 142 205 0 c112 0 227 -5 255 -11 102
-22 191 -109 226 -222 16 -55 27 -156 44 -428 19 -310 75 -431 237 -513 86
-43 285 -60 388 -32 77 20 175 78 175 103 0 4 -11 21 -24 38 l-23 29 -34 -29
c-47 -39 -90 -55 -146 -55 -87 0 -137 50 -167 165 -18 70 -36 263 -36 386 0
120 -25 252 -60 325 -62 126 -222 241 -395 283 -44 10 -73 21 -65 24 8 3 46
15 83 27 240 77 399 309 367 536 -33 237 -193 402 -465 476 -77 21 -98 22
-585 22 -278 1 -553 0 -612 -2z m1065 -125 c58 -29 87 -51 117 -88 156 -197
120 -634 -63 -756 -74 -50 -113 -57 -312 -57 l-180 -1 -1 465 c-1 256 1 469 4
473 2 5 84 7 181 5 l177 -3 77 -38z"/>
<path d="M11515 4176 c-148 -37 -244 -147 -245 -279 0 -100 42 -167 133 -213
26 -14 114 -41 194 -60 216 -52 258 -80 258 -174 0 -60 -30 -101 -99 -135 -70
-34 -190 -38 -258 -7 -56 25 -106 77 -114 119 l-6 33 -69 0 -69 0 0 -28 c0
-45 57 -148 101 -183 132 -104 392 -113 536 -16 130 87 158 275 57 387 -50 55
-124 87 -281 120 -74 16 -153 40 -176 52 -112 62 -89 205 41 255 133 51 298
-5 319 -109 5 -27 7 -28 75 -28 l70 0 -7 37 c-21 111 -111 198 -235 227 -77
19 -156 19 -225 2z"/>
<path d="M14310 4173 c-86 -24 -147 -61 -204 -124 -120 -133 -161 -339 -110
-544 47 -185 185 -308 373 -335 73 -10 100 -9 196 12 124 27 227 118 275 243
l10 25 -75 0 c-54 0 -75 -4 -75 -13 0 -24 -58 -83 -111 -111 -107 -59 -248
-45 -349 35 -87 69 -139 218 -127 364 10 109 40 179 106 246 66 66 124 89 222
89 119 0 198 -43 250 -136 l31 -54 64 0 c35 0 64 4 64 10 0 5 -9 34 -21 64
-22 60 -92 145 -148 180 -94 59 -255 80 -371 49z"/>
<path d="M15990 4172 c-81 -27 -112 -46 -154 -92 -99 -109 -99 -259 -1 -349
56 -52 88 -65 272 -111 170 -43 181 -47 217 -91 32 -37 36 -110 9 -149 -48
-70 -112 -94 -230 -88 -128 6 -196 46 -223 131 l-12 37 -69 0 -70 0 7 -37 c10
-58 48 -126 90 -163 112 -98 318 -123 486 -60 137 51 211 205 163 341 -38 107
-108 150 -325 200 -205 47 -245 74 -245 164 0 66 23 100 91 135 61 32 179 35
234 6 53 -28 89 -66 96 -103 l6 -33 69 0 c68 0 69 0 69 27 0 76 -93 188 -188
224 -81 30 -218 36 -292 11z"/>
<path d="M19511 4174 c-82 -22 -147 -62 -207 -127 -90 -97 -122 -181 -131
-347 -17 -321 167 -533 462 -533 270 0 425 164 425 451 l0 62 -205 0 -206 0 3
-57 3 -58 133 -3 132 -3 0 -27 c0 -80 -62 -172 -145 -214 -51 -27 -167 -36
-230 -18 -60 17 -132 69 -167 121 -111 165 -81 468 56 573 66 50 114 66 201
66 125 0 200 -43 251 -142 l24 -48 66 0 67 0 -7 32 c-17 88 -100 194 -184 237
-98 50 -234 64 -341 35z"/>
<path d="M8080 3680 l0 -500 65 0 65 0 2 173 3 172 165 5 c151 5 170 7 220 31
73 35 135 99 161 169 17 44 20 72 17 145 -4 104 -21 148 -81 208 -78 78 -163
97 -434 97 l-183 0 0 -500z m458 356 c103 -44 140 -171 82 -286 -42 -83 -89
-100 -270 -100 l-140 0 0 198 c0 109 3 202 7 205 3 4 67 6 142 4 103 -2 146
-7 179 -21z"/>
<path d="M9160 3680 l0 -500 315 0 315 0 0 60 0 60 -250 0 -250 0 0 440 0 440
-65 0 -65 0 0 -500z"/>
<path d="M10402 4128 c-11 -29 -58 -150 -104 -268 -123 -313 -258 -666 -258
-674 0 -4 32 -6 71 -4 l72 3 47 130 46 130 209 0 208 0 14 -40 c7 -22 30 -82
49 -132 l36 -93 69 0 c71 0 76 3 59 42 -9 21 -82 212 -280 733 -40 105 -76
198 -81 208 -8 13 -23 17 -74 17 l-64 0 -19 -52z m163 -333 c36 -98 69 -191
72 -206 l6 -29 -155 0 c-85 0 -157 2 -160 5 -2 3 32 102 76 220 50 135 83 211
87 202 4 -7 38 -93 74 -192z"/>
<path d="M12319 4130 c-1 -27 -2 -55 -3 -61 -1 -8 49 -10 162 -10 l162 2 0
-441 0 -440 70 0 70 0 0 434 0 433 46 7 c26 3 100 6 166 6 l119 0 -3 58 -3 57
-392 3 -393 2 -1 -50z"/>
<path d="M13460 3680 l0 -500 65 0 65 0 0 500 0 500 -65 0 -65 0 0 -500z"/>
<path d="M16867 4173 c-12 -12 -8 -665 4 -727 34 -169 189 -279 394 -280 216
-1 362 112 395 304 7 41 10 183 8 385 l-3 320 -65 0 -65 0 -2 -348 c-3 -330
-4 -351 -24 -398 -55 -126 -231 -178 -374 -110 -70 33 -87 50 -116 116 -23 52
-28 149 -29 578 l0 167 -58 0 c-32 0 -62 -3 -65 -7z"/>
<path d="M18090 3680 l0 -500 70 0 70 0 0 190 0 190 109 0 110 0 118 -190 118
-190 78 0 c42 0 77 2 77 5 0 6 -54 94 -147 240 -105 165 -101 151 -49 176 61
28 119 94 141 158 26 79 18 203 -17 262 -76 129 -168 159 -490 159 l-188 0 0
-500z m487 346 c39 -22 58 -40 73 -71 45 -92 7 -203 -85 -253 -23 -12 -67 -17
-182 -20 l-153 -4 0 192 0 192 148 -4 c139 -4 150 -6 199 -32z"/>
<path d="M20437 4173 c-4 -3 -7 -228 -7 -500 l0 -493 330 0 330 0 0 60 0 60
-260 0 -260 0 0 160 0 160 235 0 236 0 -3 58 c-2 36 -7 57 -15 58 -7 1 -112 2
-233 3 l-220 1 0 160 0 160 260 0 261 0 -3 58 -3 57 -321 3 c-176 1 -323 -1
-327 -5z"/>
<path d="M21477 4173 c-4 -3 -7 -228 -7 -500 l0 -493 70 0 70 0 0 190 0 190
108 0 108 0 118 -190 118 -190 80 0 c61 0 77 3 72 13 -4 6 -59 94 -121 193
-62 100 -113 186 -113 192 0 6 15 15 33 21 52 17 103 67 134 129 24 49 28 69
28 142 -1 175 -85 270 -266 299 -70 12 -422 15 -432 4z m468 -144 c66 -32 88
-65 93 -137 6 -80 -21 -140 -79 -179 -41 -27 -47 -28 -196 -31 l-153 -4 0 184
c0 102 3 188 8 192 4 5 68 6 143 4 119 -4 142 -7 184 -29z"/>
<path d="M22490 4173 c0 -4 81 -141 180 -303 l180 -295 0 -197 0 -198 70 0 70
0 0 194 0 195 180 296 c99 163 180 300 180 306 0 5 -33 9 -73 9 l-74 0 -139
-240 c-154 -265 -140 -253 -190 -160 -13 25 -70 124 -127 220 l-104 175 -76 3
c-43 2 -77 -1 -77 -5z"/>
</g>
</svg>
