<?xml version="1.0" standalone="no"?>
<!DOCTYPE svg PUBLIC "-//W3C//DTD SVG 20010904//EN"
 "http://www.w3.org/TR/2001/REC-SVG-20010904/DTD/svg10.dtd">
<svg version="1.0" xmlns="http://www.w3.org/2000/svg"
 width="2048.000000pt" height="1360.000000pt" viewBox="0 0 2048.000000 1360.000000"
 preserveAspectRatio="xMidYMid meet">
<metadata>
Created by potrace 1.16, written by Peter Selinger 2001-2019
</metadata>
<g transform="translate(0.000000,1360.000000) scale(0.100000,-0.100000)"
fill="#000000" stroke="none">
<path d="M7740 12070 c0 -22 5 -30 18 -30 30 0 118 -47 160 -85 51 -45 95
-114 124 -191 l23 -59 5 -1415 6 -1415 26 -105 c122 -491 423 -840 886 -1025
211 -85 347 -109 617 -109 207 0 321 15 467 62 50 16 53 19 56 55 2 20 2 37 0
37 -2 0 -46 -9 -98 -20 -337 -71 -682 -10 -948 167 -286 190 -470 484 -533
852 -19 112 -19 163 -17 1526 l3 1410 23 54 c54 128 125 202 235 247 42 18 53
27 55 48 l3 26 -555 0 -556 0 0 -30z"/>
<path d="M10342 12074 c2 -22 11 -29 45 -39 95 -28 164 -88 226 -195 60 -104
57 9 57 -2017 0 -1323 -3 -1867 -11 -1905 -24 -113 -88 -205 -161 -230 -17 -6
-28 -17 -28 -29 0 -18 14 -19 440 -19 412 0 440 1 440 18 0 11 -20 28 -55 46
-63 33 -103 79 -143 163 l-27 58 -3 1880 c-2 2074 -7 1926 60 2042 54 96 175
193 241 193 12 0 17 8 17 30 l0 30 -551 0 -550 0 3 -26z"/>
<path d="M11772 11958 c3 -31 4 -32 76 -44 339 -57 592 -243 745 -549 49 -96
89 -226 107 -340 17 -106 14 -336 -5 -451 -80 -466 -416 -796 -867 -849 -56
-7 -58 -8 -58 -36 0 -27 2 -29 43 -29 78 0 261 20 369 40 314 59 554 176 738
360 180 179 274 382 311 665 22 168 -8 411 -71 574 -129 333 -432 559 -864
646 -143 28 -304 45 -433 45 l-94 0 3 -32z"/>
<path d="M16735 4534 c-196 -41 -348 -135 -449 -277 -94 -133 -133 -249 -143
-422 -19 -343 146 -622 435 -740 353 -143 760 2 915 326 71 149 82 200 82 374
0 172 -15 239 -88 380 -56 111 -182 237 -287 288 -111 55 -212 77 -339 76 -58
-1 -115 -3 -126 -5z m230 -98 c160 -42 265 -159 326 -361 26 -86 38 -350 20
-462 -47 -303 -204 -473 -438 -473 -123 0 -229 45 -309 132 -111 121 -164 290
-164 527 0 246 54 414 171 531 99 99 260 142 394 106z"/>
<path d="M1235 4502 c-3 -3 -5 -18 -5 -33 0 -25 5 -30 43 -39 113 -29 145 -41
151 -56 3 -9 6 -276 6 -594 0 -666 15 -588 -117 -618 -77 -17 -78 -18 -81 -51
l-3 -32 403 3 c382 4 407 5 483 27 349 99 566 397 541 746 -12 184 -67 308
-190 430 -120 119 -255 182 -451 210 -59 9 -772 15 -780 7z m764 -107 c150
-36 268 -130 336 -268 52 -108 68 -183 68 -322 0 -343 -149 -564 -415 -619
-76 -16 -261 -22 -305 -10 l-23 6 0 614 0 614 138 0 c87 0 160 -6 201 -15z"/>
<path d="M3074 4497 c-3 -9 -4 -26 -2 -38 2 -20 13 -25 66 -36 35 -7 76 -18
90 -26 l27 -12 3 -591 c2 -489 0 -593 -11 -603 -8 -6 -51 -19 -96 -28 l-81
-17 0 -33 0 -33 305 0 305 0 0 33 0 34 -78 16 c-43 10 -84 23 -90 29 -9 9 -12
83 -12 266 l0 254 108 -3 c152 -6 161 -12 238 -169 34 -69 97 -200 140 -292
l79 -168 183 0 182 0 0 33 c0 30 -3 33 -58 49 -34 10 -68 28 -84 45 -15 15
-79 125 -144 243 -64 118 -124 224 -133 234 -9 10 -35 31 -59 46 l-42 28 42
10 c58 15 156 74 197 120 119 131 120 359 3 480 -53 55 -147 104 -232 122 -34
7 -206 14 -447 17 -347 4 -394 3 -399 -10z m803 -114 c82 -44 123 -130 123
-258 0 -157 -63 -266 -174 -300 -61 -18 -217 -30 -279 -21 l-47 7 0 300 0 301
168 -4 c150 -3 171 -5 209 -25z"/>
<path d="M6317 4503 c-4 -3 -7 -19 -7 -34 0 -25 5 -30 43 -39 75 -20 105 -31
116 -43 6 -8 11 -186 13 -492 3 -479 3 -480 27 -540 33 -82 60 -122 118 -177
101 -93 216 -132 398 -132 134 0 204 15 290 64 62 35 137 108 170 164 55 95
58 123 64 634 5 405 8 474 21 482 8 6 46 19 83 31 67 20 68 21 65 52 l-3 32
-227 3 -228 2 0 -35 c0 -30 4 -35 28 -41 83 -18 138 -42 149 -65 17 -32 18
-853 2 -931 -25 -118 -98 -207 -205 -249 -48 -19 -78 -23 -164 -23 -93 -1
-111 2 -160 25 -80 37 -125 81 -162 157 l-33 67 0 484 0 485 25 13 c14 7 51
20 83 29 55 15 57 16 57 50 l0 34 -278 0 c-153 0 -282 -3 -285 -7z"/>
<path d="M8130 4412 c0 -55 -3 -140 -7 -191 l-6 -92 43 3 43 3 22 65 c42 123
79 177 138 199 16 6 82 11 148 11 l119 0 0 -604 c0 -505 -2 -605 -14 -615 -8
-7 -53 -19 -100 -28 l-86 -17 0 -33 0 -33 331 0 330 0 -3 33 c-3 32 -4 32 -82
49 -44 9 -90 21 -103 27 l-23 11 0 605 0 605 125 0 c187 0 216 -20 274 -192
l28 -83 39 0 39 0 0 58 c-1 31 -2 116 -3 187 l-2 130 -625 0 -625 0 0 -98z"/>
<path d="M9760 4476 c0 -34 0 -34 73 -51 39 -10 80 -22 90 -27 16 -8 17 -47
17 -601 0 -446 -3 -596 -12 -605 -6 -6 -47 -19 -90 -29 l-78 -16 0 -34 0 -33
595 0 594 0 6 33 c8 47 35 288 35 315 0 18 -5 22 -34 22 -33 0 -36 -3 -75 -83
-49 -102 -106 -159 -182 -181 -69 -21 -509 -24 -509 -3 0 6 -1 140 -2 297 l-2
285 136 0 c175 0 181 -3 223 -133 30 -91 30 -93 60 -90 l30 3 3 268 2 267 -32
0 c-31 0 -34 -3 -50 -58 -9 -31 -27 -73 -40 -92 -37 -55 -67 -64 -206 -65
l-122 0 -2 170 c-1 94 -1 218 0 278 l2 107 177 0 c97 0 205 -5 241 -11 99 -17
145 -68 197 -216 19 -52 20 -53 58 -53 l40 0 -6 107 c-4 58 -7 141 -7 185 l0
78 -565 0 -565 0 0 -34z"/>
<path d="M11980 4476 c0 -31 4 -36 28 -42 86 -19 133 -36 142 -54 14 -26 14
-1154 0 -1180 -7 -13 -35 -24 -90 -37 -80 -18 -80 -18 -80 -50 l0 -33 315 0
315 0 0 33 0 33 -82 14 c-93 14 -129 26 -140 43 -4 7 -8 110 -8 230 l0 217
153 0 c173 0 258 15 353 59 69 32 153 104 190 162 62 98 73 281 22 390 -31 68
-109 147 -180 181 -117 58 -142 60 -555 65 l-383 5 0 -36z m660 -69 c117 -6
185 -50 232 -152 19 -43 23 -67 23 -165 0 -140 -17 -198 -76 -257 -73 -74
-155 -96 -334 -91 l-100 3 -3 332 -2 332 42 3 c42 3 60 2 218 -5z"/>
<path d="M13560 4476 c0 -33 1 -34 68 -50 37 -10 77 -24 90 -32 l22 -14 0
-588 c0 -440 -3 -591 -12 -600 -6 -6 -47 -20 -90 -29 -78 -18 -78 -18 -78 -50
l0 -33 301 0 300 0 -3 32 c-3 31 -6 33 -78 51 -41 10 -80 23 -87 29 -20 16
-19 1181 1 1200 7 8 48 22 90 32 l77 18 -3 31 -3 32 -297 3 -298 2 0 -34z"/>
<path d="M14570 4477 l0 -34 85 -22 c47 -13 88 -28 92 -34 4 -6 6 -277 4 -601
-2 -443 -5 -592 -14 -598 -7 -4 -47 -16 -89 -25 -78 -18 -78 -18 -78 -50 l0
-33 569 0 570 0 5 43 c4 23 13 107 21 187 9 80 18 160 21 178 5 32 4 32 -34
32 -38 0 -40 -2 -57 -47 -34 -90 -93 -198 -127 -230 -62 -59 -93 -67 -301 -71
-103 -2 -199 -1 -213 2 l-24 6 2 608 3 607 88 24 87 25 0 33 0 33 -305 0 -305
0 0 -33z"/>
<path d="M17940 4315 l0 -195 38 0 c37 0 39 2 52 43 19 66 69 169 93 196 39
42 77 51 212 51 l125 0 0 -599 c0 -523 -2 -602 -15 -615 -9 -8 -51 -23 -95
-33 -80 -18 -80 -18 -80 -50 l0 -33 310 0 310 0 0 33 0 34 -80 17 c-44 9 -86
24 -95 32 -13 14 -15 90 -15 615 l0 599 130 0 c193 0 220 -19 285 -199 l30
-86 38 -3 38 -3 -3 193 -3 193 -637 3 -638 2 0 -195z"/>
<path d="M4979 3337 c-19 -12 -44 -43 -57 -68 -30 -61 -19 -116 32 -167 31
-31 42 -36 96 -40 52 -4 65 -1 99 21 74 49 90 151 34 217 -53 64 -140 80 -204
37z"/>
<path d="M14402 1924 c-49 -34 -15 -124 47 -124 32 0 71 39 71 70 0 10 -9 29
-21 44 -24 30 -63 34 -97 10z"/>
<path d="M14690 1920 c-43 -43 -11 -120 48 -120 36 0 72 37 72 73 0 36 -33 67
-70 67 -17 0 -39 -9 -50 -20z"/>
<path d="M8805 1727 c-120 -31 -212 -106 -263 -215 -24 -50 -27 -69 -27 -162
0 -99 2 -109 33 -172 93 -189 323 -268 516 -177 70 32 151 111 181 175 50 106
49 249 -2 352 -36 71 -127 154 -198 181 -71 27 -175 34 -240 18z m167 -117
c96 -27 169 -125 176 -236 11 -164 -100 -294 -250 -294 -74 0 -122 20 -176 73
-116 114 -106 318 22 418 58 45 148 61 228 39z"/>
<path d="M12714 1730 c-104 -21 -217 -106 -264 -201 -121 -239 11 -512 270
-559 181 -33 367 65 432 228 18 46 22 77 23 157 0 88 -3 107 -27 157 -76 163
-256 253 -434 218z m192 -133 c43 -22 91 -74 116 -126 28 -57 31 -176 6 -232
-61 -140 -219 -199 -349 -131 -60 31 -113 93 -129 150 -15 54 -12 142 6 195
20 60 87 129 145 150 54 20 161 17 205 -6z"/>
<path d="M3400 1350 l0 -370 65 0 65 0 0 178 1 177 41 -45 c23 -25 88 -95 144
-156 57 -60 111 -120 121 -133 16 -20 25 -22 102 -19 l83 3 -168 178 c-93 99
-170 185 -172 193 -2 9 61 80 141 162 80 81 155 159 167 175 l21 27 -78 0 -79
0 -60 -62 c-33 -35 -106 -113 -162 -175 l-102 -112 0 174 0 175 -65 0 -65 0 0
-370z"/>
<path d="M4338 1553 c-2 -93 -2 -259 0 -370 l3 -203 58 0 58 0 5 98 c3 53 3
220 0 370 l-5 272 -58 0 -58 0 -3 -167z"/>
<path d="M4920 1350 l0 -370 250 0 250 0 0 54 0 54 -57 -1 c-32 -1 -118 -1
-190 1 l-133 2 0 105 0 105 113 0 c61 0 136 3 165 6 l52 7 0 48 0 49 -162 2
-163 3 -3 98 -3 97 191 0 190 0 0 55 0 55 -250 0 -250 0 0 -370z"/>
<path d="M5830 1350 l0 -370 65 0 65 0 0 155 0 155 160 0 160 0 0 55 0 55
-160 0 -160 0 0 105 0 105 180 0 180 0 0 55 0 55 -245 0 -245 0 0 -370z"/>
<path d="M6720 1350 l0 -370 250 0 250 0 0 50 c0 59 20 54 -215 55 l-160 0 -3
108 -3 107 128 0 c70 0 145 3 166 6 37 7 37 7 37 55 l0 49 -165 0 -165 0 0
100 0 100 188 2 187 3 3 53 3 52 -250 0 -251 0 0 -370z"/>
<path d="M7620 1351 l0 -371 60 0 60 0 0 130 0 130 54 0 55 0 117 -130 117
-130 79 0 c61 0 77 3 72 13 -4 6 -58 65 -118 130 -61 64 -111 122 -111 128 0
5 18 20 40 32 23 13 52 42 70 71 27 45 30 58 30 132 0 76 -2 86 -30 126 -21
28 -50 53 -90 73 -57 29 -62 30 -232 33 l-173 4 0 -371z m340 244 c38 -19 60
-63 60 -115 0 -97 -60 -139 -197 -140 l-83 0 0 135 0 135 95 0 c66 0 105 -5
125 -15z"/>
<path d="M9630 1351 l0 -371 65 0 65 0 0 130 0 130 53 0 53 0 113 -130 113
-130 79 0 c44 0 79 2 79 4 0 3 -54 64 -121 137 l-120 133 28 14 c87 44 128
122 121 231 -5 89 -38 142 -118 186 -54 30 -57 30 -232 33 l-178 4 0 -371z
m365 226 c19 -19 37 -46 41 -60 15 -64 -22 -138 -82 -163 -19 -8 -68 -14 -114
-14 l-80 0 0 135 0 135 101 0 101 0 33 -33z"/>
<path d="M10500 1665 l0 -55 115 0 115 0 0 -315 0 -315 65 0 65 0 0 315 0 314
113 3 112 3 3 53 3 52 -295 0 -296 0 0 -55z"/>
<path d="M11460 1350 l0 -370 65 0 65 0 0 165 0 165 170 0 170 0 0 -165 0
-165 65 0 65 0 0 370 0 370 -65 0 -65 0 0 -150 0 -150 -170 0 -170 0 -1 28 c0
15 0 82 1 150 l1 122 -65 0 -66 0 0 -370z"/>
<path d="M13520 1350 l0 -370 65 0 65 0 0 124 0 123 108 5 c78 3 119 10 152
25 91 41 140 117 140 218 0 75 -24 128 -78 177 -61 55 -118 68 -299 68 l-153
0 0 -370z m342 243 c37 -18 58 -62 58 -118 0 -99 -46 -135 -182 -143 l-88 -5
0 141 0 141 58 4 c72 4 119 -2 154 -20z"/>
<path d="M14529 1693 c-27 -68 -204 -537 -235 -620 l-33 -93 68 0 c67 0 69 1
74 28 3 15 15 53 27 85 l21 57 144 0 143 0 16 -42 c9 -24 22 -61 29 -83 l14
-40 66 -3 c37 -2 67 -1 67 1 0 6 -176 481 -231 625 l-44 112 -58 0 c-53 0 -58
-2 -68 -27z m125 -296 c25 -71 46 -133 46 -138 0 -5 -48 -9 -106 -9 -83 0
-105 3 -101 13 3 7 26 73 53 145 26 73 50 129 54 125 4 -4 28 -66 54 -136z"/>
<path d="M15260 1350 l0 -372 183 4 c180 3 183 3 249 35 81 38 142 97 177 172
23 50 26 68 26 166 0 100 -2 115 -28 167 -35 71 -110 140 -185 169 -50 20 -80
23 -239 27 l-183 4 0 -372z m375 236 c90 -42 135 -116 135 -224 0 -87 -16
-134 -64 -189 -58 -66 -101 -83 -218 -83 l-98 0 0 260 0 260 98 0 c81 0 105
-4 147 -24z"/>
<path d="M16280 1350 l0 -370 60 0 60 0 0 370 0 370 -60 0 -60 0 0 -370z"/>
<path d="M16806 1638 c-4 -46 -4 -184 -1 -308 3 -124 5 -253 5 -287 l0 -63 60
0 60 0 0 256 c0 140 4 253 8 250 5 -3 92 -118 193 -255 l184 -250 55 -1 55 0
0 218 c0 119 -1 286 -3 370 l-2 152 -60 0 -60 0 0 -219 c0 -120 -3 -233 -6
-250 l-7 -31 -41 53 c-22 30 -106 142 -186 250 l-145 197 -51 0 -52 0 -6 -82z"/>
</g>
</svg>
